<?xml version="1.0" encoding="utf-8"?>
<!-- Generator: Adobe Illustrator 24.0.1, SVG Export Plug-In . SVG Version: 6.00 Build 0)  -->
<svg version="1.1" id="Capa_1" xmlns="http://www.w3.org/2000/svg" xmlns:xlink="http://www.w3.org/1999/xlink" x="0px" y="0px"
	 viewBox="0 0 490.9 490.9" style="enable-background:new 0 0 490.9 490.9;" xml:space="preserve">
<style type="text/css">
	.st0{fill:#FFFFFF;}
	.st1{fill:#303030;stroke:#303030;stroke-width:25;stroke-miterlimit:10;}
</style>
<path class="st0" d="M245.4,0C109.9,0,0,109.9,0,245.5C0,381,109.9,490.9,245.5,490.9c135.5,0,245.4-109.9,245.4-245.4
	C490.7,109.9,380.9,0.1,245.4,0z"/>
<path class="st1" d="M202.9,384.2c-5.9,0-10.7-4.8-10.7-10.6c0-2.8,1.1-5.6,3.1-7.6l120.5-120.4L195.3,125.1c-4.1-4.2-4-11,0.3-15.1
	c4.1-4,10.7-4,14.8,0l128,128c4.2,4.2,4.2,10.9,0,15.1l-128,128C208.4,383.1,205.7,384.2,202.9,384.2z"/>
</svg>
