<?xml version="1.0" encoding="utf-8"?>
<!-- Generator: Adobe Illustrator 24.0.1, SVG Export Plug-In . SVG Version: 6.00 Build 0)  -->
<svg version="1.1" id="Capa_1" xmlns="http://www.w3.org/2000/svg" xmlns:xlink="http://www.w3.org/1999/xlink" x="0px" y="0px"
	 viewBox="0 0 515.9 515.9" style="enable-background:new 0 0 515.9 515.9;" xml:space="preserve">
<style type="text/css">
	.st0{fill:#303030;stroke:#303030;stroke-width:25;stroke-miterlimit:10;}
	.st1{fill:#FFFFFF;stroke:#FFFFFF;stroke-width:25;stroke-miterlimit:10;}
</style>
<path class="st0" d="M257.9,12.5C122.3,12.5,12.5,122.4,12.5,258c0,135.5,109.9,245.4,245.5,245.4c135.5,0,245.4-109.9,245.4-245.4
	C503.2,122.5,393.4,12.7,257.9,12.5z"/>
<path class="st1" d="M215.4,396.7c-5.9,0-10.7-4.8-10.7-10.6c0-2.8,1.1-5.6,3.1-7.6l120.5-120.4L207.8,137.7c-4.1-4.2-4-11,0.3-15.1
	c4.1-4,10.7-4,14.8,0l128,128c4.2,4.2,4.2,10.9,0,15.1l-128,128C220.9,395.6,218.2,396.7,215.4,396.7z"/>
</svg>
