<?xml version="1.0" encoding="utf-8"?>
<!-- Generator: Adobe Illustrator 24.0.1, SVG Export Plug-In . SVG Version: 6.00 Build 0)  -->
<svg version="1.1" id="Capa_1" xmlns="http://www.w3.org/2000/svg" xmlns:xlink="http://www.w3.org/1999/xlink" x="0px" y="0px"
	 viewBox="0 0 515.9 515.9" style="enable-background:new 0 0 515.9 515.9;" xml:space="preserve">
<style type="text/css">
	.st0{fill:#303030;stroke:#303030;stroke-width:25;stroke-miterlimit:10;}
	.st1{fill:#FFFFFF;stroke:#FFFFFF;stroke-width:25;stroke-miterlimit:10;}
</style>
<path class="st0" d="M258,503.4c135.6,0,245.4-109.9,245.4-245.5c0-135.5-109.9-245.4-245.5-245.4c-135.5,0-245.4,109.9-245.4,245.4
	C12.7,393.4,122.5,503.2,258,503.4z"/>
<path class="st1" d="M300.5,119.2c5.9,0,10.7,4.8,10.7,10.6c0,2.8-1.1,5.6-3.1,7.6L187.6,257.8l120.5,120.4c4.1,4.2,4,11-0.3,15.1
	c-4.1,4-10.7,4-14.8,0l-128-128c-4.2-4.2-4.2-10.9,0-15.1l128-128C295,120.3,297.7,119.2,300.5,119.2z"/>
</svg>
