<?xml version="1.0" encoding="utf-8"?>
<!-- Generator: Adobe Illustrator 24.0.1, SVG Export Plug-In . SVG Version: 6.00 Build 0)  -->
<svg version="1.1" id="Capa_1" xmlns="http://www.w3.org/2000/svg" xmlns:xlink="http://www.w3.org/1999/xlink" x="0px" y="0px"
	 viewBox="0 0 490.9 490.9" style="enable-background:new 0 0 490.9 490.9;" xml:space="preserve">
<style type="text/css">
	.st0{fill:#FFFFFF;}
	.st1{fill:#303030;stroke:#303030;stroke-width:25;stroke-miterlimit:10;}
</style>
<path class="st0" d="M245.5,490.9c135.6,0,245.4-109.9,245.4-245.5C490.9,109.9,381,0,245.4,0C109.9,0,0,109.9,0,245.4
	C0.2,380.9,110,490.7,245.5,490.9z"/>
<path class="st1" d="M288,106.7c5.9,0,10.7,4.8,10.7,10.6c0,2.8-1.1,5.6-3.1,7.6L175.1,245.3l120.5,120.4c4.1,4.2,4,11-0.3,15.1
	c-4.1,4-10.7,4-14.8,0l-128-128c-4.2-4.2-4.2-10.9,0-15.1l128-128C282.5,107.8,285.2,106.7,288,106.7z"/>
</svg>
