<?xml version="1.0" encoding="utf-8"?>
<!-- Generator: Adobe Illustrator 21.0.0, SVG Export Plug-In . SVG Version: 6.00 Build 0)  -->
<svg version="1.1"
	 id="Capa_1" inkscape:version="1.0 (4035a4fb49, 2020-05-01)" sodipodi:docname="close.svg" xmlns:cc="http://creativecommons.org/ns#" xmlns:dc="http://purl.org/dc/elements/1.1/" xmlns:inkscape="http://www.inkscape.org/namespaces/inkscape" xmlns:rdf="http://www.w3.org/1999/02/22-rdf-syntax-ns#" xmlns:sodipodi="http://sodipodi.sourceforge.net/DTD/sodipodi-0.dtd" xmlns:svg="http://www.w3.org/2000/svg"
	 xmlns="http://www.w3.org/2000/svg" xmlns:xlink="http://www.w3.org/1999/xlink" x="0px" y="0px" viewBox="0 0 512 512"
	 style="enable-background:new 0 0 512 512;" xml:space="preserve">
<style type="text/css">
	.st0{fill:#FFFFFF;}
</style>
<sodipodi:namedview  bordercolor="#666666" borderopacity="1" gridtolerance="10" guidetolerance="10" id="namedview9" inkscape:current-layer="Capa_1" inkscape:cx="140.04706" inkscape:cy="231.90588" inkscape:pageopacity="0" inkscape:pageshadow="2" inkscape:window-height="987" inkscape:window-maximized="1" inkscape:window-width="1680" inkscape:window-x="-8" inkscape:window-y="19" inkscape:zoom="1.6601562" objecttolerance="10" pagecolor="#ffffff" showgrid="false">
	</sodipodi:namedview>
<g id="g6" transform="translate(1.0981485,0.27853911)">
	<g id="g4">
		<path id="path2" class="st0" d="M495.2,101L340.1,256.1l155.1,155.1c23.1,23.1,23.1,60.5,0,83.6c-11.5,11.5-26.6,17.3-41.8,17.3
			c-15.1,0-30.3-5.8-41.8-17.3L256.5,339.7L101.4,494.8c-11.5,11.5-26.6,17.3-41.8,17.3c-15.1,0-30.2-5.8-41.8-17.3
			c-23.1-23.1-23.1-60.5,0-83.6L173,256.1L17.8,101c-23.1-23.1-23.1-60.5,0-83.6c23.1-23.1,60.5-23.1,83.5,0l155.2,155.1L411.7,17.4
			c23.1-23.1,60.5-23.1,83.5,0C518.3,40.5,518.3,77.9,495.2,101L495.2,101z"/>
	</g>
</g>
</svg>
