<svg xmlns="http://www.w3.org/2000/svg" xmlns:xlink="http://www.w3.org/1999/xlink" viewBox="0 0 371.41 395.04"><defs><style>.cls-1,.cls-9{fill:none;}.cls-2{isolation:isolate;}.cls-3{opacity:0.74;}.cls-4{clip-path:url(#clip-path);}.cls-11,.cls-13,.cls-5{fill:#ff597d;}.cls-18,.cls-5{fill-rule:evenodd;}.cls-13,.cls-5{opacity:0.23;}.cls-18,.cls-6{fill:#7557e4;}.cls-7{clip-path:url(#clip-path-2);}.cls-8{fill:#788fec;}.cls-9{stroke:#fff;stroke-miterlimit:10;stroke-width:0.5px;}.cls-10{clip-path:url(#clip-path-3);}.cls-12{fill:#3a5dec;}.cls-14,.cls-16{fill:#292929;}.cls-15{fill:#edf1ff;}.cls-16{opacity:0.2;mix-blend-mode:multiply;}.cls-17{fill:#fff;}.cls-19{fill:url(#Degradado_sin_nombre_214);}.cls-20{fill:#afafaf;}</style><clipPath id="clip-path" transform="translate(-59.91 -47.2)"><rect class="cls-1" x="-6.7" y="-10.21" width="500" height="500"/></clipPath><clipPath id="clip-path-2" transform="translate(-59.91 -47.2)"><path class="cls-1" d="M318.9,363.6c4.93-14.67,18.15-24.91,31.61-32.56s28.07-13.79,39.33-24.41a64.49,64.49,0,0,0,18.51-32.44c2.38-10.54,1.15-23.42-7.82-29.44-5.48-3.67-12.75-3.86-19-1.81s-11.67,6.12-16.59,10.5c-29.53,26.31-44.45,64.87-58.35,101.89-1.11,3-2.24,6.08-1.84,9.22s2.88,6.27,6.05,6.22,5.5-4.62,3.07-6.65"/></clipPath><clipPath id="clip-path-3" transform="translate(-59.91 -47.2)"><path class="cls-1" d="M212.14,406.76c-8.44-16.14-25.7-25.58-42.76-32S134.21,364,119.16,353.72a75.86,75.86,0,0,1-27.53-34.27c-4.72-11.8-5.67-27,3.63-35.65,5.68-5.29,14.1-6.86,21.76-5.63s14.69,4.95,21.22,9.13c39.18,25.09,63.67,67.12,86.69,107.56,1.84,3.25,3.73,6.65,3.85,10.38s-2.19,7.82-5.88,8.35-7.25-4.36-4.8-7.17"/></clipPath><linearGradient id="Degradado_sin_nombre_214" x1="253.4" y1="373.49" x2="125.9" y2="518.93" gradientTransform="translate(-51.18 48.59) rotate(-9.63)" gradientUnits="userSpaceOnUse"><stop offset="0" stop-color="#fff"/><stop offset="1" stop-color="#d9b7b3"/></linearGradient></defs><title>img-app-home</title><g class="cls-2"><g id="OBJECTS"><g class="cls-3"><g class="cls-4"><path class="cls-5" d="M396.78,166.1S388.83,93.38,329.6,63.21c-71.83-36.59-90,70.38-166.35,56.53S8,270.66,136.64,366,426.76,378.39,396.78,166.1Z" transform="translate(-59.91 -47.2)"/></g></g><path class="cls-6" d="M349,210.06a2.54,2.54,0,0,1,1.89-1.91,2.55,2.55,0,0,1,2.16-4.47l.4.09,6,1.49s-.08-5.68,1-8.47,5.32-3.21,4.66.05-.49,4.42,1.37,7.81a22.29,22.29,0,0,1,2,4.73,2.72,2.72,0,0,1,0,1.33L365.86,223a1.25,1.25,0,0,1-1.49.95l-14.7-3.29-.4-.09a2.4,2.4,0,0,1-2-2.94c.34-1.1,1.82-1.22,1.82-1.22a1.92,1.92,0,0,1-1.28-2.2,1.71,1.71,0,0,1,2-1.57A2.55,2.55,0,0,1,349,210.06Z" transform="translate(-59.91 -47.2)"/><rect class="cls-6" x="364.25" y="215.35" width="17.43" height="8.66" rx="1.61" transform="translate(17.31 488.54) rotate(-77.4)"/><g class="cls-7"><path class="cls-8" d="M318.9,363.6c4.93-14.67,18.15-24.91,31.61-32.56s28.07-13.79,39.33-24.41a64.49,64.49,0,0,0,18.51-32.44c2.38-10.54,1.15-23.42-7.82-29.44-5.48-3.67-12.75-3.86-19-1.81s-11.67,6.12-16.59,10.5c-29.53,26.31-44.45,64.87-58.35,101.89-1.11,3-2.24,6.08-1.84,9.22s2.88,6.27,6.05,6.22,5.5-4.62,3.07-6.65" transform="translate(-59.91 -47.2)"/><path class="cls-9" d="M412.49,239S356.4,274.5,303,382.12" transform="translate(-59.91 -47.2)"/><path class="cls-9" d="M381.45,266s-1.67-24.63,1.91-36.86" transform="translate(-59.91 -47.2)"/><path class="cls-9" d="M374.49,274.43S407.6,285,425,277.59" transform="translate(-59.91 -47.2)"/><path class="cls-9" d="M387.41,260.77s33.13,3.68,43.75-5.3" transform="translate(-59.91 -47.2)"/><path class="cls-9" d="M367.66,280.84s-10.71-21.58-11-36.47" transform="translate(-59.91 -47.2)"/><path class="cls-9" d="M359.35,291.57s44,16.83,59.36,2.11" transform="translate(-59.91 -47.2)"/><path class="cls-9" d="M353.22,299.63S334,273.1,335.38,257.11" transform="translate(-59.91 -47.2)"/><path class="cls-9" d="M348.76,306.59s30,15.54,40.17,13.37" transform="translate(-59.91 -47.2)"/><path class="cls-9" d="M342.7,313.44S319.25,296.3,316,284" transform="translate(-59.91 -47.2)"/><path class="cls-9" d="M337.27,323.15s27.5,16.6,48.18,13.88" transform="translate(-59.91 -47.2)"/><path class="cls-9" d="M330.26,332.36s-27.75-19-31.08-30.08" transform="translate(-59.91 -47.2)"/></g><path class="cls-6" d="M338.6,369.41c2.53-9.73,11-17,20.25-20.93s19.34-5.29,29.19-7.32,19.88-5,27.51-11.52c3.34-2.86,6.23-6.55,7-10.88s-1.13-9.31-5.13-11.13c-6.34-2.87-13,2.95-17.78,8a181.29,181.29,0,0,1-40,31.5" transform="translate(-59.91 -47.2)"/><g class="cls-10"><path class="cls-6" d="M212.14,406.76c-8.44-16.14-25.7-25.58-42.76-32S134.21,364,119.16,353.72a75.86,75.86,0,0,1-27.53-34.27c-4.72-11.8-5.67-27,3.63-35.65,5.68-5.29,14.1-6.86,21.76-5.63s14.69,4.95,21.22,9.13c39.18,25.09,63.67,67.12,86.69,107.56,1.84,3.25,3.73,6.65,3.85,10.38s-2.19,7.82-5.88,8.35-7.25-4.36-4.8-7.17" transform="translate(-59.91 -47.2)"/><path class="cls-9" d="M80.3,279.36s71.76,30.83,153.72,146" transform="translate(-59.91 -47.2)"/><path class="cls-9" d="M121.37,305s-2.62-28.93-9.05-42.49" transform="translate(-59.91 -47.2)"/><path class="cls-9" d="M131,313.46s-36.52,18.35-58,13" transform="translate(-59.91 -47.2)"/><path class="cls-9" d="M113.48,300s-37.82,10.43-51.82,2" transform="translate(-59.91 -47.2)"/><path class="cls-9" d="M140.15,319.63s8.44-27.05,6-44.41" transform="translate(-59.91 -47.2)"/><path class="cls-9" d="M151.79,330.57s-48,27.7-68.58,13.45" transform="translate(-59.91 -47.2)"/><path class="cls-9" d="M160.41,338.79s17.44-34.39,12.85-52.72" transform="translate(-59.91 -47.2)"/><path class="cls-9" d="M166.88,346.05s-31.95,23.62-44.19,23" transform="translate(-59.91 -47.2)"/><path class="cls-9" d="M175.19,352.89s24.07-24.27,25.57-39.12" transform="translate(-59.91 -47.2)"/><path class="cls-9" d="M183.3,363.17s-28.88,24.38-53.4,25.05" transform="translate(-59.91 -47.2)"/><path class="cls-9" d="M193.15,372.57s28.72-27.25,30.54-40.72" transform="translate(-59.91 -47.2)"/></g><path class="cls-11" d="M272.24,379c5.51-6.56,15.56-6.13,24.07-5.12-3.25.21-6.13-3.06-5.85-6.3a7.18,7.18,0,0,1,6.52-6.17,9.18,9.18,0,0,1,8.21,4.34c-2.9-3.59-5.9-7.34-6.95-11.84s.48-10,4.65-11.94c3.46-1.64,7.74-.43,10.72,2s4.92,5.84,6.81,9.17c0-5.78-3.07-11.06-6-16s-6-10.26-6-16,4.37-12,10.15-11.75S328,315.47,330,320.85a79.7,79.7,0,0,1,4.89,31.82,85.44,85.44,0,0,1,10.85-32.35,7.73,7.73,0,0,1,2.69-3.1c2.08-1.13,4.81-.14,6.32,1.67a12.53,12.53,0,0,1,2.34,6.59,43,43,0,0,1-5.76,27.19c3.39-2.51,5-6.73,6.25-10.74s2.56-8.26,5.63-11.16,8.56-3.68,11.26-.45c1.86,2.22,1.79,5.47,1.21,8.3a30.85,30.85,0,0,1-10,17.15,51.51,51.51,0,0,1,16.56-12.13c2.39-1.1,5.15-2,7.59-1,4.6,1.88,4.22,8.86,1.25,12.85s-7.56,6.7-9.9,11.09A20.79,20.79,0,0,1,417,383.29l-105,1.14c-14.1.15-28.21.3-42.29-.5" transform="translate(-59.91 -47.2)"/><path class="cls-11" d="M175.25,411.8c-2.74-10.53-11.93-18.35-21.93-22.66s-20.95-5.73-31.61-7.93-21.52-5.4-29.79-12.47c-3.62-3.1-6.75-7.09-7.57-11.78s1.22-10.09,5.56-12.06c6.86-3.11,14,3.2,19.25,8.65a196.47,196.47,0,0,0,43.32,34.11" transform="translate(-59.91 -47.2)"/><path class="cls-12" d="M115.44,406.18c5.59-6.66,15.78-6.22,24.41-5.2-3.29.22-6.21-3.1-5.93-6.38a7.29,7.29,0,0,1,6.61-6.26,9.35,9.35,0,0,1,8.33,4.4c-3-3.63-6-7.44-7.05-12s.48-10.1,4.72-12.11c3.5-1.67,7.84-.44,10.86,2s5,5.92,6.9,9.3c0-5.86-3.11-11.22-6.11-16.26s-6.08-10.4-6.08-16.27,4.43-12.14,10.29-11.91,9.54,6.23,11.57,11.69a80.8,80.8,0,0,1,5,32.26,86.46,86.46,0,0,1,11-32.8,7.82,7.82,0,0,1,2.73-3.15c2.1-1.14,4.88-.14,6.41,1.7a12.65,12.65,0,0,1,2.36,6.68,43.64,43.64,0,0,1-5.83,27.57c3.43-2.55,5-6.82,6.33-10.89s2.6-8.38,5.71-11.31,8.68-3.74,11.42-.46c1.88,2.25,1.81,5.54,1.23,8.42a31.33,31.33,0,0,1-10.19,17.38,52.32,52.32,0,0,1,16.8-12.3c2.42-1.11,5.22-2,7.69-1,4.67,1.91,4.28,9,1.27,13s-7.67,6.79-10,11.24a21.08,21.08,0,0,1,36.37,17l-106.44,1.15c-14.29.15-28.6.31-42.88-.51" transform="translate(-59.91 -47.2)"/><ellipse class="cls-13" cx="280.33" cy="421.79" rx="96.99" ry="13.81" transform="translate(-122.68 2.07) rotate(-9.04)"/><path class="cls-14" d="M307.4,120.94l45.77,267.93a23.65,23.65,0,0,1,.32,4.57c0,.75-.09,1.49-.19,2.22-.06.37-.11.74-.17,1.11a22.58,22.58,0,0,1-3.8,9,23.48,23.48,0,0,1-2.06,2.51c-.49.52-1,1-1.56,1.5h0c-.55.47-1.11.92-1.71,1.34h0a22.15,22.15,0,0,1-2.81,1.71h0c-.66.33-1.33.64-2,.91a23.92,23.92,0,0,1-4.43,1.22L224.8,433.71a22.52,22.52,0,0,1-4.82.3c-.27,0-.52,0-.79-.05l-.87-.08a23.11,23.11,0,0,1-3.54-.71c-.59-.17-1.15-.36-1.7-.57-.26-.1-.52-.19-.77-.3-.54-.22-1.06-.47-1.58-.74a22.64,22.64,0,0,1-4.49-3c-.54-.47-1.07-1-1.57-1.49a22.81,22.81,0,0,1-2.08-2.52,22,22,0,0,1-2.2-3.83h0a22.75,22.75,0,0,1-1.65-5.44L153,147.32a22.58,22.58,0,0,1,18.46-26.06l109.91-18.78A22.59,22.59,0,0,1,307.4,120.94Z" transform="translate(-59.91 -47.2)"/><path class="cls-15" d="M302.51,121.77l45.77,267.94a18.7,18.7,0,0,1,.25,3.58,14.62,14.62,0,0,1-.14,1.68l-.16,1a17.18,17.18,0,0,1-1.62,4.72,18.66,18.66,0,0,1-1.33,2.18,17.56,17.56,0,0,1-1.63,2c-.29.3-.64.64-1,1l-.17.15a13.08,13.08,0,0,1-1.07.87l-.26.18a16.89,16.89,0,0,1-2,1.21l-.23.12c-.55.27-1.06.5-1.57.71a19.15,19.15,0,0,1-3.47.94L224,428.82a17.48,17.48,0,0,1-3.75.24c-.43,0-.86-.05-1.27-.1a18.39,18.39,0,0,1-2.81-.56c-.45-.14-.9-.28-1.29-.44-.22-.08-.39-.14-.54-.21l-.12-.05c-.34-.13-.72-.31-1.2-.55a18.59,18.59,0,0,1-3.5-2.37c-.45-.39-.85-.76-1.21-1.14a18.37,18.37,0,0,1-1.63-2,17.56,17.56,0,0,1-1.61-2.74l-.11-.25a18,18,0,0,1-1.29-4.25L157.86,146.48a17.65,17.65,0,0,1,14.41-20.33l109.9-18.77a17.65,17.65,0,0,1,20.34,14.39Z" transform="translate(-59.91 -47.2)"/><path class="cls-16" d="M340,314.68c-.05-1-.1-2.23-.12-3.6l3.61,21.12a62.34,62.34,0,0,1-3.19-6.34C339.58,323.71,339.71,318.9,340,314.68Z" transform="translate(-59.91 -47.2)"/><path class="cls-14" d="M319,188.79h0l-5.4-31.64h0a4.53,4.53,0,0,1,5.22,3.7l3.88,22.71A4.53,4.53,0,0,1,319,188.79Z" transform="translate(-59.91 -47.2)"/><path class="cls-14" d="M158.24,183.42h2.17a2.36,2.36,0,0,1,2.36,2.36v11.33a2.36,2.36,0,0,1-2.36,2.36h-2.17a0,0,0,0,1,0,0v-16A0,0,0,0,1,158.24,183.42Z" transform="translate(291.05 305.93) rotate(170.31)"/><path class="cls-14" d="M161.5,202.5h2.17a2.36,2.36,0,0,1,2.36,2.36v11.33a2.36,2.36,0,0,1-2.36,2.36H161.5a0,0,0,0,1,0,0v-16A0,0,0,0,1,161.5,202.5Z" transform="translate(300.73 343.27) rotate(170.31)"/><path class="cls-14" d="M244.73,120.67l-32.68,5.58A10.1,10.1,0,0,1,200.39,118h0L253,109h0A10.11,10.11,0,0,1,244.73,120.67Z" transform="translate(-59.91 -47.2)"/><path class="cls-8" d="M382.39,410a14.74,14.74,0,0,0,.41,1.52l2.78,0,1.37,2.39-1.43,2.38a13.86,13.86,0,0,0,2.38,2.15l2.22-1.67,2.51,1.12.25,2.77A13.74,13.74,0,0,0,396,421l.83-2.65,2.7-.55,1.81,2.1a13.33,13.33,0,0,0,2.78-1.58l-.88-2.63,1.86-2,2.7.64a13.74,13.74,0,0,0,1.32-2.92l-2.26-1.6.3-2.74,2.56-1.08a16,16,0,0,0-.24-1.65c-.11-.51-.25-1-.4-1.48l-2.78,0-1.37-2.39,1.44-2.38A13.44,13.44,0,0,0,404,395.9l-2.23,1.65-2.51-1.12-.23-2.78a14.08,14.08,0,0,0-3.18-.34L395,396l-2.7.56-1.81-2.1A13.83,13.83,0,0,0,387.7,396l.89,2.63-1.85,2.05-2.7-.63a13.44,13.44,0,0,0-1.31,2.92l2.26,1.6-.29,2.74-2.56,1.08A12.81,12.81,0,0,0,382.39,410Zm8.68-6.73a6.19,6.19,0,1,1,1,8.71A6.19,6.19,0,0,1,391.07,403.28Z" transform="translate(-59.91 -47.2)"/><path class="cls-6" d="M289.25,76.26a14.61,14.61,0,0,0,.09,1.76l3,.63.92,2.92-2.13,2.25a15.28,15.28,0,0,0,2.07,2.9L296,85.44l2.47,1.83-.4,3.07a15.64,15.64,0,0,0,3.28,1.11l1.54-2.69,3.07,0,1.47,2.73a15.08,15.08,0,0,0,3.4-1.05l-.33-3.08,2.51-1.76L315.84,87A15.39,15.39,0,0,0,318,84.13l-2.08-2.29,1-2.9,3-.56a16.28,16.28,0,0,0,.14-1.86,16,16,0,0,0-.09-1.7l-3-.64-.91-2.92L318.18,69a14.94,14.94,0,0,0-2.06-2.92l-2.82,1.27-2.46-1.83.41-3.08a15.64,15.64,0,0,0-3.38-1.14L306.34,64l-3.07,0-1.47-2.72a15.71,15.71,0,0,0-3.41,1.06l.34,3.08-2.5,1.78-2.79-1.33a15,15,0,0,0-2.13,2.86L293.39,71l-1,2.91-3.05.56A15.57,15.57,0,0,0,289.25,76.26ZM300.31,71a6.9,6.9,0,1,1-1,9.72A6.9,6.9,0,0,1,300.31,71Z" transform="translate(-59.91 -47.2)"/><path class="cls-6" d="M113.93,111.81a11.2,11.2,0,0,0,.07,1.3l2.23.46.68,2.16-1.57,1.65a11.25,11.25,0,0,0,1.53,2.14l2.07-.94,1.82,1.35-.29,2.26a11,11,0,0,0,2.41.82l1.14-2,2.27,0,1.08,2a10.76,10.76,0,0,0,2.51-.78l-.24-2.27,1.85-1.3,2,1a12,12,0,0,0,1.58-2.1l-1.53-1.7.73-2.14,2.24-.41a10.15,10.15,0,0,0,.1-1.37c0-.42,0-.84-.06-1.25l-2.23-.47-.67-2.16,1.57-1.65a10.85,10.85,0,0,0-1.52-2.15l-2.08.93-1.82-1.35.31-2.27a11.77,11.77,0,0,0-2.49-.84l-1.14,2-2.26,0-1.08-2a11.1,11.1,0,0,0-2.51.78l.24,2.27-1.84,1.31-2.06-1a11.57,11.57,0,0,0-1.57,2.11l1.54,1.69-.72,2.14-2.25.42C114,110.92,113.94,111.36,113.93,111.81Zm8.16-3.86a5.09,5.09,0,1,1-.75,7.17A5.1,5.1,0,0,1,122.09,108Z" transform="translate(-59.91 -47.2)"/><path class="cls-12" d="M320.19,85.22a8.69,8.69,0,0,0,.05.89l1.53.32.46,1.47L321.16,89a7.58,7.58,0,0,0,1,1.46l1.42-.64,1.24.92-.2,1.55a8.53,8.53,0,0,0,1.66.56l.78-1.36,1.54,0,.75,1.37a7.71,7.71,0,0,0,1.71-.53l-.16-1.55,1.27-.89,1.4.67a7.32,7.32,0,0,0,1.08-1.44L333.64,88l.5-1.47,1.54-.28a7.19,7.19,0,0,0,.06-.94,6.19,6.19,0,0,0,0-.86l-1.53-.32-.45-1.47,1.07-1.13a8,8,0,0,0-1-1.48l-1.42.64-1.24-.92.2-1.55a7.92,7.92,0,0,0-1.7-.58L328.81,79l-1.54,0-.75-1.37a7.55,7.55,0,0,0-1.71.53l.17,1.56-1.27.89-1.4-.67a7.53,7.53,0,0,0-1.08,1.44l1,1.16L321.79,84l-1.54.28C320.22,84.61,320.19,84.92,320.19,85.22Zm5.59-2.64a3.48,3.48,0,1,1-.52,4.91A3.47,3.47,0,0,1,325.78,82.58Z" transform="translate(-59.91 -47.2)"/><path class="cls-11" d="M160.79,429.17a6.41,6.41,0,0,0,0,.88l1.53.32.46,1.48L161.75,433a8,8,0,0,0,1,1.47l1.42-.65,1.25.92-.2,1.55a7.13,7.13,0,0,0,1.65.56l.78-1.35,1.55,0,.74,1.38a7.8,7.8,0,0,0,1.72-.53l-.17-1.56,1.27-.89,1.4.68a7.23,7.23,0,0,0,1.08-1.44l-1-1.16.49-1.46,1.54-.28c0-.31.06-.62.07-.94s0-.58,0-.86l-1.53-.32-.46-1.48,1.08-1.13a7.65,7.65,0,0,0-1-1.47l-1.43.64-1.24-.93.21-1.55a7.64,7.64,0,0,0-1.71-.57l-.77,1.36-1.55,0-.74-1.38a8.2,8.2,0,0,0-1.72.54l.17,1.55-1.26.9-1.41-.67a8.08,8.08,0,0,0-1.08,1.44l1.06,1.15-.5,1.47-1.53.29A6.84,6.84,0,0,0,160.79,429.17Zm5.58-2.64a3.48,3.48,0,1,1-.52,4.9A3.48,3.48,0,0,1,166.37,426.53Z" transform="translate(-59.91 -47.2)"/><path class="cls-11" d="M79.24,148.26a25.44,25.44,0,0,0,.22,3l5.28,1,1.7,5-3.6,4a26.36,26.36,0,0,0,3.68,5l4.85-2.32L95.71,167l-.58,5.34a26.36,26.36,0,0,0,5.73,1.8l2.58-4.71,5.32,0,2.64,4.68a26.45,26.45,0,0,0,5.87-2l-.68-5.33,4.29-3.15,4.88,2.22a26,26,0,0,0,3.6-5l-3.68-3.9,1.61-5.07,5.26-1.08a25.69,25.69,0,0,0-.05-6.18l-5.27-1-1.69-5,3.63-4a27,27,0,0,0-3.69-5l-4.85,2.3-4.33-3.09.6-5.34a27,27,0,0,0-5.9-1.86l-2.57,4.73-5.32,0-2.66-4.67a27.12,27.12,0,0,0-5.86,2l.7,5.33L91,132.22,86.12,130a26.55,26.55,0,0,0-3.58,5l3.69,3.89L84.65,144l-5.26,1.09A27.18,27.18,0,0,0,79.24,148.26Zm19-9.49a12,12,0,1,1-1.41,16.89A12,12,0,0,1,98.24,138.77Z" transform="translate(-59.91 -47.2)"/><path class="cls-11" d="M290.7,142.54v16.85A10.32,10.32,0,0,0,301,169.72h8.2V183.6l15.16-13.88h26.28A18.75,18.75,0,0,0,369.43,151h0a18.76,18.76,0,0,0-18.76-18.76H301A10.33,10.33,0,0,0,290.7,142.54Z" transform="translate(-59.91 -47.2)"/><path class="cls-17" d="M317.22,150.44a3.18,3.18,0,1,1-3.18-3.17A3.18,3.18,0,0,1,317.22,150.44Z" transform="translate(-59.91 -47.2)"/><path class="cls-17" d="M333.05,150.44a3.18,3.18,0,1,1-3.17-3.17A3.17,3.17,0,0,1,333.05,150.44Z" transform="translate(-59.91 -47.2)"/><path class="cls-17" d="M348.89,150.44a3.18,3.18,0,1,1-3.18-3.17A3.18,3.18,0,0,1,348.89,150.44Z" transform="translate(-59.91 -47.2)"/><rect class="cls-17" x="187.65" y="148.49" width="102.92" height="73.25" transform="translate(-85.91 -7.52) rotate(-9)"/><polygon class="cls-18" points="187.55 141.91 172.79 135.82 175.4 152.25 187.55 141.91"/><rect class="cls-17" x="204.64" y="238.87" width="100.72" height="70.95" transform="translate(-102.07 -0.85) rotate(-9.6)"/><rect class="cls-11" x="200.02" y="239.26" width="100.72" height="15.53" transform="translate(-97.58 -2) rotate(-9.6)"/><rect class="cls-8" x="244.18" y="265.65" width="48.78" height="3.17" transform="translate(-100.69 1.31) rotate(-9.6)"/><rect class="cls-8" x="245.27" y="272.06" width="48.78" height="3.17" transform="translate(-101.75 1.58) rotate(-9.6)"/><rect class="cls-8" x="246.42" y="279.33" width="38.35" height="3.14" transform="translate(-103.01 1.01) rotate(-9.6)"/><rect class="cls-8" x="247.59" y="286.75" width="26.06" height="3.17" transform="translate(-104.32 0.28) rotate(-9.6)"/><rect class="cls-6" x="213.91" y="272.64" width="26.87" height="23.22" transform="translate(-104.11 -5.32) rotate(-9.6)"/><path class="cls-17" d="M211.07,254a1.52,1.52,0,1,1-1.75-1.25A1.53,1.53,0,0,1,211.07,254Z" transform="translate(-59.91 -47.2)"/><path class="cls-17" d="M216.75,253a1.52,1.52,0,1,1-1.75-1.24A1.51,1.51,0,0,1,216.75,253Z" transform="translate(-59.91 -47.2)"/><path class="cls-17" d="M222.44,252.06a1.52,1.52,0,1,1-1.75-1.24A1.52,1.52,0,0,1,222.44,252.06Z" transform="translate(-59.91 -47.2)"/><path class="cls-19" d="M312.2,319,324,388.69h0l-98.95,16.79-11.83-69.7s0,0,0,0L312.19,319Z" transform="translate(-59.91 -47.2)"/><rect class="cls-12" x="213.83" y="327.27" width="100.38" height="15.47" transform="translate(-112.24 1.71) rotate(-9.63)"/><circle class="cls-11" cx="240.02" cy="372.86" r="13.26" transform="translate(-105.22 -13.78) rotate(-7.28)"/><rect class="cls-6" x="257.85" y="353.56" width="48.61" height="3.16" transform="translate(-115.36 5.03) rotate(-9.63)"/><rect class="cls-6" x="258.94" y="359.94" width="48.61" height="3.16" transform="translate(-116.41 5.3) rotate(-9.63)"/><rect class="cls-6" x="260.02" y="366.32" width="48.61" height="3.16" transform="translate(-117.46 5.57) rotate(-9.63)"/><rect class="cls-6" x="261.1" y="372.7" width="48.61" height="3.16" transform="translate(-118.51 5.84) rotate(-9.63)"/><path class="cls-17" d="M240.74,370a2.3,2.3,0,0,0,.56-1.9,2.35,2.35,0,0,0-4.64.79,2.31,2.31,0,0,0,1.27,1.66,3.71,3.71,0,0,0-1.61,3.73l.53,3.13,7.36-1.25-.54-3.13A3.71,3.71,0,0,0,240.74,370Z" transform="translate(-59.91 -47.2)"/><path class="cls-17" d="M224.62,342a1.33,1.33,0,1,1-1.53-1.09A1.32,1.32,0,0,1,224.62,342Z" transform="translate(-59.91 -47.2)"/><path class="cls-17" d="M229.61,341.12a1.33,1.33,0,1,1-1.54-1.09A1.33,1.33,0,0,1,229.61,341.12Z" transform="translate(-59.91 -47.2)"/><path class="cls-17" d="M234.6,340.28a1.33,1.33,0,1,1-1.54-1.09A1.33,1.33,0,0,1,234.6,340.28Z" transform="translate(-59.91 -47.2)"/><rect class="cls-12" x="182.72" y="148.77" width="103.31" height="15.47" transform="translate(-81.71 -8.14) rotate(-9.1)"/><path class="cls-17" d="M193.54,163.71a1.33,1.33,0,1,1-2.62.44,1.33,1.33,0,0,1,2.62-.44Z" transform="translate(-59.91 -47.2)"/><path class="cls-17" d="M198.53,162.86a1.33,1.33,0,1,1-1.54-1.09A1.34,1.34,0,0,1,198.53,162.86Z" transform="translate(-59.91 -47.2)"/><path class="cls-17" d="M203.51,162a1.32,1.32,0,0,1-1.09,1.53,1.33,1.33,0,0,1-.44-2.62A1.32,1.32,0,0,1,203.51,162Z" transform="translate(-59.91 -47.2)"/><g id="hands_mobile" data-name="hands &amp; mobile"><path class="cls-11" d="M157,227.34a12.2,12.2,0,1,1-15-8.53A12.19,12.19,0,0,1,157,227.34Z" transform="translate(-59.91 -47.2)"/><path class="cls-14" d="M164,259.31a2.89,2.89,0,0,1-1,4l-1.29.78a2.9,2.9,0,0,1-4-1l-37.17-61.78a2.91,2.91,0,0,1,1-4l1.29-.77a2.89,2.89,0,0,1,4,1Z" transform="translate(-59.91 -47.2)"/><path class="cls-14" d="M103.3,274.66,82.5,287.17A3.47,3.47,0,0,1,77.75,286L63.21,261.83a3.47,3.47,0,0,1,1.19-4.75l17.83-10.73A3.47,3.47,0,0,1,87,247.53Z" transform="translate(-59.91 -47.2)"/><path class="cls-12" d="M63.58,262.44a12.44,12.44,0,0,0-1.92,15.18l1.72,2.84a12.41,12.41,0,0,0,14.3,5.42Z" transform="translate(-59.91 -47.2)"/><path class="cls-12" d="M87,247.54l14.75,24.51A101.42,101.42,0,0,1,157,261.71l-35.51-59A99.75,99.75,0,0,1,87,247.54Z" transform="translate(-59.91 -47.2)"/><path class="cls-12" d="M81.57,287.73a1.63,1.63,0,0,0,.23.29l4.41,3.76a1.74,1.74,0,0,0,2.42-.17l13,22.33.49.81.86,1.43a1.74,1.74,0,0,0,2.38.6l10.24-6.16a1.75,1.75,0,0,0,.59-2.38L114.8,306a1.77,1.77,0,0,0-2.38-.59s-4.27-5.78-5.9-8.48c-2-3.4-7.48-12.44-9.27-15.42l2.45-2.88a1.73,1.73,0,0,0,.2-1.93Z" transform="translate(-59.91 -47.2)"/><polygon class="cls-20" points="37.34 234.31 42.77 238.95 41.34 240.96 37.34 234.31"/></g><path class="cls-11" d="M157.43,191.68l-6.54,16.17a1.48,1.48,0,0,1-1.93.81h0a1.48,1.48,0,0,1-.81-1.92l6.54-16.17a1.48,1.48,0,0,1,1.92-.81h0A1.48,1.48,0,0,1,157.43,191.68Z" transform="translate(-59.91 -47.2)"/><path class="cls-11" d="M172.35,204.19l-12.3,12.36a1.46,1.46,0,0,1-2.08,0h0a1.48,1.48,0,0,1,0-2.09l12.3-12.36a1.48,1.48,0,0,1,2.09,0h0A1.48,1.48,0,0,1,172.35,204.19Z" transform="translate(-59.91 -47.2)"/><path class="cls-11" d="M181.46,220.7,165,226.32a1.48,1.48,0,0,1-1.87-.92h0a1.47,1.47,0,0,1,.92-1.87l16.51-5.62a1.48,1.48,0,0,1,1.87.92h0A1.48,1.48,0,0,1,181.46,220.7Z" transform="translate(-59.91 -47.2)"/><path class="cls-11" d="M185.31,236.44,168,238.08a1.48,1.48,0,0,1-1.61-1.33h0a1.48,1.48,0,0,1,1.33-1.61L185,233.5a1.48,1.48,0,0,1,1.61,1.33h0A1.49,1.49,0,0,1,185.31,236.44Z" transform="translate(-59.91 -47.2)"/><rect class="cls-12" x="192.71" y="49.71" width="32.45" height="32.45" rx="2.98" transform="translate(-69.14 -1.31) rotate(-12.26)"/><path class="cls-17" d="M215.59,58a5.82,5.82,0,0,0-7.81,2l-.1.16-.16-.1a5.81,5.81,0,0,0-7.93,1.43,5.66,5.66,0,0,0,1.6,8l8.35,5.11A1.8,1.8,0,0,0,212,74l5.48-8.11A5.67,5.67,0,0,0,215.59,58Z" transform="translate(-59.91 -47.2)"/><polyline class="cls-12" points="159.42 31.85 153.49 40.35 144.99 34.42"/></g></g></svg>