<?xml version="1.0" encoding="utf-8"?>
<!-- Generator: Adobe Illustrator 16.0.0, SVG Export Plug-In . SVG Version: 6.00 Build 0)  -->
<!DOCTYPE svg PUBLIC "-//W3C//DTD SVG 1.1//EN" "http://www.w3.org/Graphics/SVG/1.1/DTD/svg11.dtd">
<svg version="1.1" xmlns="http://www.w3.org/2000/svg" xmlns:xlink="http://www.w3.org/1999/xlink" x="0px" y="0px" width="750px"
	 height="500px" viewBox="0 0 750 500" style="enable-background:new 0 0 750 500;" xml:space="preserve">
<g id="Background_Simple">
	<g>
		<path style="fill:#92E3A9;" d="M463.5,150.23c-20.97-17.55-49.81-41.75-74.58-62.7c-24.88-21.05-56.87-31.95-89.39-29.96
			c-36.19,2.21-81.27,14.87-113.19,57.7c-61.89,83.07-34.25,277.45,85.02,314.13c119.27,36.68,226.59,8.7,290.15-52.14
			c63.56-60.83,55.73-176.37,25.43-190.32c-15.7-7.23-40.46-10.29-60.67-11.57C503.21,173.92,481.23,165.06,463.5,150.23z"/>
		<path style="opacity:0.7;fill:#FFFFFF;" d="M463.5,149.23c-20.97-17.55-49.81-41.75-74.58-62.7
			c-24.88-21.05-56.87-31.95-89.39-29.96c-36.19,2.21-81.27,14.87-113.19,57.7c-61.89,83.07-34.25,277.45,85.02,314.13
			c119.27,36.68,226.59,8.7,290.15-52.14c63.56-60.83,55.73-176.37,25.43-190.32c-15.7-7.23-40.46-10.29-60.67-11.57
			C503.21,172.92,481.23,164.06,463.5,149.23z"/>
	</g>
</g>
<g id="Podcast">
	<g>
		<g>
			<g>
				
					<path style="fill:none;stroke:#263238;stroke-width:0.9696;stroke-linecap:round;stroke-linejoin:round;stroke-miterlimit:10;" d="
					M402.01,216.08c-7.76-5.25-17.12-8.31-27.2-8.31c-26.86,0-48.64,21.78-48.64,48.64c0,9.07,2.48,17.56,6.81,24.83"/>
				
					<path style="fill:none;stroke:#263238;stroke-width:0.9696;stroke-linecap:round;stroke-linejoin:round;stroke-miterlimit:10;" d="
					M419.3,236.72c-0.95-2.14-2.05-4.2-3.29-6.17"/>
				
					<path style="fill:none;stroke:#263238;stroke-width:0.9696;stroke-linecap:round;stroke-linejoin:round;stroke-miterlimit:10;" d="
					M415.15,283.62c5.25-7.76,8.31-17.12,8.31-27.2c0-3.41-0.35-6.74-1.02-9.96"/>
			</g>
			<g>
				
					<path style="fill:none;stroke:#263238;stroke-width:0.9696;stroke-linecap:round;stroke-linejoin:round;stroke-miterlimit:10;" d="
					M326.51,208.12c-3.31,3.31-6.28,6.95-8.85,10.88"/>
				
					<path style="fill:none;stroke:#263238;stroke-width:0.9696;stroke-linecap:round;stroke-linejoin:round;stroke-miterlimit:10;" d="
					M428.82,298.23c8.96-11.55,14.29-26.06,14.29-41.81c0-37.72-30.58-68.3-68.3-68.3c-13.17,0-25.47,3.73-35.91,10.19"/>
				
					<path style="fill:none;stroke:#263238;stroke-width:0.9696;stroke-linecap:round;stroke-linejoin:round;stroke-miterlimit:10;" d="
					M320.68,298.23c-8.96-11.55-14.29-26.06-14.29-41.81c0-7.2,1.11-14.13,3.18-20.65"/>
			</g>
			<g>
				
					<path style="fill:none;stroke:#263238;stroke-width:0.9696;stroke-linecap:round;stroke-linejoin:round;stroke-miterlimit:10;" d="
					M299.27,315.5c4.25,5.43,9.08,10.39,14.38,14.78"/>
				
					<path style="fill:none;stroke:#263238;stroke-width:0.9696;stroke-linecap:round;stroke-linejoin:round;stroke-miterlimit:10;" d="
					M429.06,177.33c-15.43-10.6-34.11-16.81-54.25-16.81c-52.96,0-95.9,42.93-95.9,95.9c0,13.35,2.73,26.06,7.65,37.61"/>
				
					<path style="fill:none;stroke:#263238;stroke-width:0.9696;stroke-linecap:round;stroke-linejoin:round;stroke-miterlimit:10;" d="
					M464.26,221.78c-2.59-6.69-5.92-13.02-9.87-18.89"/>
				
					<path style="fill:none;stroke:#263238;stroke-width:0.9696;stroke-linecap:round;stroke-linejoin:round;stroke-miterlimit:10;" d="
					M441.1,325.71c18.24-17.46,29.6-42.05,29.6-69.29"/>
			</g>
			<g>
				
					<path style="fill:none;stroke:#263238;stroke-width:0.9696;stroke-linecap:round;stroke-linejoin:round;stroke-miterlimit:10;" d="
					M240.8,256.42c0,66.73,48.55,122.13,112.25,132.79"/>
				<g>
					
						<path style="fill:none;stroke:#263238;stroke-width:0.9696;stroke-linecap:round;stroke-linejoin:round;stroke-miterlimit:10;" d="
						M483.02,336.55c16.61-22.39,26.43-50.12,26.43-80.14c0-74.36-60.28-134.64-134.64-134.64c-10.73,0-21.17,1.26-31.18,3.63"/>
					
						<path style="fill:none;stroke:#263238;stroke-width:0.9696;stroke-linecap:round;stroke-linejoin:round;stroke-miterlimit:10;" d="
						M240.8,256.42c0-63.42,43.84-116.59,102.87-130.87"/>
					
						<path style="fill:none;stroke:#263238;stroke-width:0.9696;stroke-linecap:round;stroke-linejoin:round;stroke-miterlimit:10;" d="
						M257.04,320.58"/>
					
						<path style="fill:none;stroke:#263238;stroke-width:0.9696;stroke-linecap:round;stroke-linejoin:round;stroke-miterlimit:10;" d="
						M454.39,365.04c3.42-2.51,6.71-5.17,9.87-7.98"/>
					
						<path style="fill:none;stroke:#263238;stroke-width:0.9696;stroke-linecap:round;stroke-linejoin:round;stroke-miterlimit:10;" d="
						M397.21,389.21c15.6-2.61,30.3-7.91,43.59-15.4"/>
				</g>
			</g>
			<g>
				<g>
					<g>
						<path style="fill:#263238;" d="M374.81,377.15c-28.37,0-51.44-23.08-51.44-51.44v-17.32c0-1.55,1.25-2.8,2.8-2.8h7
							c1.55,0,2.8,1.25,2.8,2.8s-1.25,2.8-2.8,2.8h-4.2v14.52c0,25.28,20.57,45.84,45.84,45.84c25.28,0,45.84-20.57,45.84-45.84
							v-14.52h-4.2c-1.55,0-2.8-1.25-2.8-2.8s1.25-2.8,2.8-2.8h7c1.55,0,2.8,1.25,2.8,2.8v17.32
							C426.25,354.07,403.18,377.15,374.81,377.15z"/>
					</g>
				</g>
				<g>
					<path style="fill:#263238;" d="M429.05,420.19v-5.6c0-3.09-2.51-5.6-5.6-5.6h-97.29c-3.09,0-5.6,2.51-5.6,5.6v5.6H429.05z"/>
					<path style="fill:#263238;" d="M423.45,420.19"/>
				</g>
				<path style="fill:#263238;" d="M380.27,415.81c0.09-0.4,0.14-0.8,0.14-1.23v-40.23h-11.2v40.23c0,0.42,0.05,0.83,0.14,1.23
					H380.27z"/>
			</g>
			<g>
				
					<path style="fill:none;stroke:#263238;stroke-width:0.9696;stroke-linecap:round;stroke-linejoin:round;stroke-miterlimit:10;" d="
					M409.45,256.42c0-19.13-15.51-34.65-34.65-34.65c-19.13,0-34.65,15.51-34.65,34.65c0,9.74,0,59.55,0,69.29
					c0,19.13,15.51,34.65,34.65,34.65c19.13,0,34.65-15.51,34.65-34.65C409.45,317.07,409.45,265.06,409.45,256.42z"/>
				<g>
					<defs>
						<path id="XMLID_10_" d="M409.45,256.42c0-19.13-15.51-34.65-34.65-34.65c-19.13,0-34.65,15.51-34.65,34.65
							c0,9.74,0,59.55,0,69.29c0,19.13,15.51,34.65,34.65,34.65c19.13,0,34.65-15.51,34.65-34.65
							C409.45,317.07,409.45,265.06,409.45,256.42z"/>
					</defs>
					<use xlink:href="#XMLID_10_"  style="overflow:visible;fill:#92E3A9;"/>
					<clipPath id="XMLID_4_">
						<use xlink:href="#XMLID_10_"  style="overflow:visible;"/>
					</clipPath>
					<path style="clip-path:url(#XMLID_4_);fill:#FFFFFF;" d="M360.46,260.08h-20.3c0,2.25,0,5.12,0,8.4h20.3
						c2.32,0,4.2-1.88,4.2-4.2S362.78,260.08,360.46,260.08z"/>
					<path style="clip-path:url(#XMLID_4_);fill:#FFFFFF;" d="M409.45,260.08h-20.3c-2.32,0-4.2,1.88-4.2,4.2s1.88,4.2,4.2,4.2h20.3
						C409.45,265.17,409.45,262.29,409.45,260.08z"/>
					<circle style="clip-path:url(#XMLID_4_);fill:#FFFFFF;" cx="374.81" cy="264.27" r="4.2"/>
					<circle style="clip-path:url(#XMLID_4_);fill:#FFFFFF;" cx="374.81" cy="281.25" r="4.2"/>
					<circle style="clip-path:url(#XMLID_4_);fill:#FFFFFF;" cx="374.81" cy="298.22" r="4.2"/>
					<path style="clip-path:url(#XMLID_4_);fill:#FFFFFF;" d="M360.46,277.05h-20.3c0,2.7,0,5.53,0,8.4h20.3
						c2.32,0,4.2-1.88,4.2-4.2S362.78,277.05,360.46,277.05z"/>
					<path style="clip-path:url(#XMLID_4_);fill:#FFFFFF;" d="M409.45,277.05h-20.3c-2.32,0-4.2,1.88-4.2,4.2s1.88,4.2,4.2,4.2h20.3
						C409.45,282.57,409.45,279.75,409.45,277.05z"/>
					<path style="clip-path:url(#XMLID_4_);fill:#FFFFFF;" d="M360.46,294.02h-20.3c0,2.85,0,5.67,0,8.4h20.3
						c2.32,0,4.2-1.88,4.2-4.2S362.78,294.02,360.46,294.02z"/>
					<path style="clip-path:url(#XMLID_4_);fill:#FFFFFF;" d="M409.45,294.02h-20.3c-2.32,0-4.2,1.88-4.2,4.2s1.88,4.2,4.2,4.2h20.3
						C409.45,299.7,409.45,296.87,409.45,294.02z"/>
					<use xlink:href="#XMLID_10_"  style="overflow:visible;fill:none;stroke:#263238;stroke-width:0.9696;stroke-miterlimit:10;"/>
				</g>
				<path style="fill:#263238;stroke:#263238;stroke-width:0.9696;stroke-miterlimit:10;" d="M340.16,325.71
					c0,19.13,15.51,34.65,34.65,34.65c19.13,0,34.65-15.51,34.65-34.65H340.16z"/>
			</g>
		</g>
	</g>
</g>
<g id="Character_2">
	<g>
		<circle style="fill:#92E3A9;" cx="590.35" cy="229.93" r="110.78"/>
		<g>
			<path style="fill:#FFFFFF;" d="M574.47,275.61h-77.4c-3.9,0-7.06-3.16-7.06-7.06v-77.4c0-3.9,3.16-7.06,7.06-7.06h77.4
				c3.9,0,7.06,3.16,7.06,7.06v77.4C581.53,272.45,578.37,275.61,574.47,275.61z"/>
			<g style="opacity:0.1;">
				<path d="M498.64,275.61h30.54l19.45-91.51h-31.78l-19.43,91.42C497.83,275.57,498.23,275.61,498.64,275.61z"/>
				<polygon points="561.58,184.09 553.94,184.09 534.49,275.61 542.13,275.61 				"/>
			</g>
			<g>
				<path style="fill:#FFFFFF;stroke:#263238;stroke-width:0.9326;stroke-miterlimit:10;" d="M572.89,277.89h-74.25
					c-6.02,0-10.91-4.9-10.91-10.92v-74.25c0-6.02,4.9-10.91,10.91-10.91h74.25c6.02,0,10.91,4.9,10.91,10.91v74.25
					C583.81,272.99,578.91,277.89,572.89,277.89z M498.64,186.38c-3.5,0-6.35,2.85-6.35,6.35v74.25c0,3.5,2.85,6.35,6.35,6.35h74.25
					c3.5,0,6.35-2.85,6.35-6.35v-74.25c0-3.5-2.85-6.35-6.35-6.35H498.64z"/>
			</g>
		</g>
		<g>
			<path style="fill:#FFFFFF;" d="M682.1,275.61h-77.4c-3.9,0-7.06-3.16-7.06-7.06v-77.4c0-3.9,3.16-7.06,7.05-7.06h77.4
				c3.9,0,7.05,3.16,7.05,7.06v77.4C689.16,272.45,686,275.61,682.1,275.61z"/>
			<g style="opacity:0.1;">
				<path d="M614.26,275.61h30.54l19.45-91.51h-31.78l-19.43,91.42C613.44,275.57,613.85,275.61,614.26,275.61z"/>
				<polygon points="677.2,184.09 669.56,184.09 650.1,275.61 657.75,275.61 				"/>
			</g>
			<g>
				<path style="fill:#FFFFFF;stroke:#263238;stroke-width:0.9326;stroke-miterlimit:10;" d="M680.52,277.89h-74.25
					c-6.02,0-10.91-4.9-10.91-10.92v-74.25c0-6.02,4.9-10.91,10.91-10.91h74.25c6.02,0,10.91,4.9,10.91,10.91v74.25
					C691.44,272.99,686.54,277.89,680.52,277.89z M606.27,186.38c-3.5,0-6.35,2.85-6.35,6.35v74.25c0,3.5,2.85,6.35,6.35,6.35h74.25
					c3.5,0,6.35-2.85,6.35-6.35v-74.25c0-3.5-2.85-6.35-6.35-6.35H606.27z"/>
			</g>
		</g>
		<ellipse style="fill:#92E3A9;" cx="593.33" cy="436.14" rx="49.83" ry="7.33"/>
		<g>
			<g>
				<g>
					<defs>
						<path id="XMLID_8_" d="M615.36,393.44c0,0-0.13,20.53-2.29,23.9c-2.59,4.04-4.44,9.59,2.42,11.11
							c6.86,1.51,10.94,9.09,19.11,9.59s8.98-3.03,5.45-5.81c-3.54-2.78-12.61-10.61-13.79-14.39c-1.18-3.79,1.12-24.41,1.12-24.41
							H615.36z"/>
					</defs>
					<use xlink:href="#XMLID_8_"  style="overflow:visible;fill:#FFFFFF;"/>
					<clipPath id="XMLID_5_">
						<use xlink:href="#XMLID_8_"  style="overflow:visible;"/>
					</clipPath>
					<path style="opacity:0.1;clip-path:url(#XMLID_5_);" d="M626.28,405.36c0.43-6.05,1.09-11.92,1.09-11.92h-12.01
						c0,0-0.03,5.25-0.35,10.88C617.63,404.76,622.4,405.43,626.28,405.36z"/>
					
						<use xlink:href="#XMLID_8_"  style="overflow:visible;fill:none;stroke:#263238;stroke-width:0.9326;stroke-linecap:round;stroke-linejoin:round;stroke-miterlimit:10;"/>
				</g>
				<path style="fill:#BFBFBF;stroke:#263238;stroke-width:0.9326;stroke-miterlimit:10;" d="M640.04,432.24
					c-2.13-1.67-6.27-5.18-9.48-8.54c-2.85,2.17-11.2,0.12-13.66-1.82c-3-2.36-2.37-3.57-3.79-4.63c-0.02,0.03-0.03,0.06-0.04,0.08
					c-2.59,4.04-4.44,9.59,2.42,11.11c6.86,1.51,10.94,9.09,19.11,9.59S643.58,435.02,640.04,432.24z"/>
			</g>
			<g>
				<g>
					<defs>
						<path id="XMLID_7_" d="M569.23,385.95c0,0-8.96,18.77-12.39,21.07c-4.11,2.75-8.2,7.16-2.56,11.08
							c5.64,3.93,6.12,12.39,13.39,15.87c7.27,3.49,9.54,0.55,7.49-3.31s-6.99-14.39-6.45-18.3c0.54-3.91,11.63-22.38,11.63-22.38
							L569.23,385.95z"/>
					</defs>
					<use xlink:href="#XMLID_7_"  style="overflow:visible;fill:#FFFFFF;"/>
					<clipPath id="XMLID_9_">
						<use xlink:href="#XMLID_7_"  style="overflow:visible;"/>
					</clipPath>
					<path style="opacity:0.1;clip-path:url(#XMLID_9_);" d="M569.23,385.95c0,0-3.21,6.74-6.53,12.63
						c1.92,1.86,5.29,4.76,9.12,6.53c3.45-6.68,8.52-15.13,8.52-15.13L569.23,385.95z"/>
					
						<use xlink:href="#XMLID_7_"  style="overflow:visible;fill:none;stroke:#263238;stroke-width:0.9326;stroke-linecap:round;stroke-linejoin:round;stroke-miterlimit:10;"/>
				</g>
				<path style="fill:#BFBFBF;stroke:#263238;stroke-width:0.9326;stroke-miterlimit:10;" d="M575.16,430.67
					c-1.24-2.33-3.52-7.07-5.02-11.34c-3.55,0.93-10.93-3.82-11.74-6.72c-1.56-5.59-0.64-4.15-1.49-5.65
					c-0.02,0.02-0.05,0.04-0.08,0.06c-4.11,2.75-8.2,7.16-2.56,11.08c5.64,3.93,6.12,12.39,13.39,15.87
					C574.94,437.46,577.21,434.52,575.16,430.67z"/>
			</g>
			
				<path style="fill:#263238;stroke:#263238;stroke-width:0.9326;stroke-linecap:round;stroke-linejoin:round;stroke-miterlimit:10;" d="
				M616.81,253.11c0,0,13.77,65.99,14.69,87.54c0.92,21.55-2.66,59.93-2.66,59.93l-15.3-1.01c0,0-0.1-11.35-1.63-27.16
				c-0.91-9.39-3.77-20.35-3.45-31.43c0,0-14.53-43.09-13.98-61.95c0.55-18.85,0-24.35,0-24.35L616.81,253.11z"/>
			
				<path style="fill:#263238;stroke:#263238;stroke-width:0.9326;stroke-linecap:round;stroke-linejoin:round;stroke-miterlimit:10;" d="
				M580,253.11c0,0-14.29,11.8-6.05,35.6c3.26,9.43,15.84,52.61,15.84,52.61s-4.52,4.8-8.7,13.05
				c-5.74,11.34-9.92,29.04-16.97,39.13l10.48,7.07c0,0,33.83-42.42,36.01-55.89c2.18-13.47-7.99-67.34-7.99-67.34l-3.25-21.88
				L580,253.11z"/>
			<g>
				
					<path style="fill:#FFFFFF;stroke:#263238;stroke-width:0.9326;stroke-linecap:round;stroke-linejoin:round;stroke-miterlimit:10;" d="
					M643.33,208.38c-0.4-3.91-2.19-6.25-2.19-6.25s1.96-2.59,2.71-4.42c0.76-1.83-0.25-4.42-2.37-1.33
					c-2.11,3.09-4.43,5.37-3.59,9.24c0.84,3.87-1.27,7.27-1.27,7.27l4.86,3.81l9.71-7.72L643.33,208.38z"/>
				<g>
					<g>
						
							<path style="fill:#263238;stroke:#263238;stroke-width:0.9326;stroke-linecap:round;stroke-linejoin:round;stroke-miterlimit:10;" d="
							M653.3,208.4l-8.17,2.22c-0.75,0.2-1.52-0.24-1.73-0.99l-4.66-17.12c-0.2-0.75,0.24-1.52,0.99-1.73l8.17-2.22
							c0.75-0.2,1.52,0.24,1.73,0.99l4.66,17.12C654.49,207.43,654.05,208.2,653.3,208.4z"/>
						
							<rect x="640.88" y="190.95" transform="matrix(-0.9649 0.2624 -0.2624 -0.9649 1322.7576 222.5278)" style="fill:#92E3A9;stroke:#263238;stroke-width:0.9326;stroke-linecap:round;stroke-linejoin:round;stroke-miterlimit:10;" width="11.28" height="17.3"/>
					</g>
					<g>
						<path style="fill:#263238;" d="M647.51,195.58c-0.29-1.07-1.4-1.7-2.47-1.41c-1.07,0.29-1.7,1.39-1.41,2.47
							c0.13,0.5,0.78,2.85,1,3.68l3.88-1.05C648.29,198.44,647.63,196.01,647.51,195.58z"/>
						<path style="fill:#263238;" d="M647.15,201.92c1-0.27,1.62-1.26,1.46-2.27l-3.86,1.05
							C645.11,201.65,646.15,202.19,647.15,201.92z"/>
						<path style="fill:#263238;" d="M650.77,203.98l-2.52,0.69l-0.52-1.9c1.46-0.58,2.3-2.16,1.88-3.71l-0.28-1.02
							c-0.02-0.09-0.12-0.14-0.21-0.12l-0.41,0.11c-0.09,0.02-0.14,0.12-0.12,0.21c0.02,0.09,0.12,0.14,0.21,0.12l0.25-0.07
							l0.23,0.85c0.4,1.48-0.48,3.02-1.96,3.42c-1.48,0.4-3.02-0.47-3.42-1.96l-0.23-0.85l0.25-0.07c0.09-0.02,0.14-0.12,0.12-0.21
							c-0.02-0.09-0.12-0.14-0.21-0.12l-0.41,0.11c-0.09,0.02-0.14,0.12-0.12,0.21l0.28,1.02c0.42,1.55,1.95,2.5,3.5,2.25l0.52,1.9
							l-2.52,0.69c-0.18,0.05-0.29,0.24-0.24,0.42l0.09,0.33l6.36-1.73l-0.09-0.33C651.14,204.04,650.96,203.93,650.77,203.98z"/>
					</g>
				</g>
				
					<path style="fill:#FFFFFF;stroke:#263238;stroke-width:0.9326;stroke-linecap:round;stroke-linejoin:round;stroke-miterlimit:10;" d="
					M651.8,193.71c-1.04,0.1-1.83,1.67-1.51,3.88c0.32,2.21,2.34-0.19,2.46-0.88S653.71,193.51,651.8,193.71z"/>
				
					<path style="fill:#FFFFFF;stroke:#263238;stroke-width:0.9326;stroke-linecap:round;stroke-linejoin:round;stroke-miterlimit:10;" d="
					M654.01,196.96c0,0-1.96-0.01-1.77,2.14c0.19,2.15,0.61,1.65,0.61,1.65s0.03,1.63,0.53,2.57c0.5,0.95,1.83-0.49,1.83-1.35
					C655.21,201.12,655.05,196.64,654.01,196.96z"/>
				
					<path style="fill:#FFFFFF;stroke:#263238;stroke-width:0.9326;stroke-linecap:round;stroke-linejoin:round;stroke-miterlimit:10;" d="
					M652.85,200.75c0,0,1.74-0.51,2.14-1.78"/>
				
					<path style="fill:#FFFFFF;stroke:#263238;stroke-width:0.9326;stroke-linecap:round;stroke-linejoin:round;stroke-miterlimit:10;" d="
					M637.82,209.84c0.28-1.21,0.42-2.67,0.08-4.22c-0.84-3.87,1.48-6.14,3.59-9.24c2.11-3.09,3.12-0.51,2.37,1.33
					c-0.76,1.83-2.71,4.42-2.71,4.42s1.99,2.32,2.19,6.25c0.04,0.73,0,2.91,0,2.91"/>
			</g>
			<g>
				<path style="fill:#263238;" d="M610.99,185.67c3.49-0.72,4.55-1.61,4.55-1.61c-2.61-10.52,6.75-45.86-22.75-47.49
					c-29.5-1.63-13.03,48.46-13.03,48.46c1.11,0.15,2.17,0.28,3.22,0.4l-1.66-10.07l3.85,10.32c11.35,1.23,18.64,1.02,23.22,0.42
					c-0.41-3.34-0.87-8.89-0.19-13.69C608.2,172.4,609.29,180.73,610.99,185.67z"/>
				
					<path style="fill:none;stroke:#263238;stroke-width:0.9326;stroke-linecap:round;stroke-linejoin:round;stroke-miterlimit:10;" d="
					M592.79,137.19c0,0-3.66-3.92-8.85-0.97"/>
			</g>
			<g>
				
					<path style="fill:#FFFFFF;stroke:#263238;stroke-width:0.9326;stroke-linecap:round;stroke-linejoin:round;stroke-miterlimit:10;" d="
					M615.26,192.08C615.26,192.08,615.26,192.08,615.26,192.08l0-0.32C615.2,191.9,615.14,192.04,615.26,192.08z"/>
				<g>
					<defs>
						<path id="XMLID_6_" d="M636.62,212.89l-14.01,13.01l0.26-19.48c-0.16-3.93-1.36-7.79-3.66-10.99
							c-1.14-1.58-3.39-3.35-4.2-3.89l0.53,51.27c13.75,0.87,25.95-26.11,25.95-26.11C639.81,213.48,636.62,212.89,636.62,212.89z"
							/>
					</defs>
					<use xlink:href="#XMLID_6_"  style="overflow:visible;fill:#FFFFFF;"/>
					<clipPath id="XMLID_11_">
						<use xlink:href="#XMLID_6_"  style="overflow:visible;"/>
					</clipPath>
					<path style="opacity:0.1;clip-path:url(#XMLID_11_);" d="M620.47,236.52c-2.08,0.19-2.55-3.78-2.53-7.65
						c-0.61,1.76-1.09,3.32-1.14,4.54c-0.18,4.4-0.19,8.78-0.12,12.52c15.66-7.1,15.85-13.43,19.87-19.89
						C633.96,229.28,624.48,236.15,620.47,236.52z"/>
					
						<use xlink:href="#XMLID_6_"  style="overflow:visible;fill:none;stroke:#263238;stroke-width:0.9326;stroke-linecap:round;stroke-linejoin:round;stroke-miterlimit:10;"/>
				</g>
			</g>
			
				<polygon style="fill:#92E3A9;stroke:#263238;stroke-width:0.9326;stroke-linecap:round;stroke-linejoin:round;stroke-miterlimit:10;" points="
				633.65,214.57 636.72,211.67 643.45,216.28 641.49,219.54 			"/>
			
				<path style="fill:#FFFFFF;stroke:#263238;stroke-width:0.9326;stroke-linecap:round;stroke-linejoin:round;stroke-miterlimit:10;" d="
				M620.53,215.95c-5.64,24.99-2.84,41.43-2.84,41.43s-13.61,9.65-42.23,1.47c0,0,5.2-12.93,3.8-22.79
				c-0.85-6.08-6.55-27.89-6.55-27.89s-2.71-9.55-1.47-17.25c2.39-1.54,7.51-3.41,16.56-4.07c0.13-0.45,0.23-0.97,0.31-1.56
				c0.31-2.18,0.3-5.13,0.19-7.66c-0.13-2.98-0.38-5.39-0.38-5.39h10.91c0,0,0.15,2.76,0.49,6.03c0.19,1.91,0.46,4,0.81,5.8
				c0.19,1.01,0.41,1.93,0.65,2.67c10.9,1.63,14.96,4.48,15.79,6.95C620.3,204.86,621.73,210.66,620.53,215.95z"/>
			<g>
				<path style="fill:#263238;" d="M599.38,180.06c-0.9,1.99-1.97,3.58-5.86,3.55c-2.86-0.02-5.44-2.52-5.73-3.5
					c0.31-2.18-0.01-2.94-0.12-5.47c2.81-0.27,7.85,0.25,11.02,0.64C598.89,177.19,599.04,178.26,599.38,180.06z"/>
				
					<path style="fill:#FFFFFF;stroke:#263238;stroke-width:0.9326;stroke-linecap:round;stroke-linejoin:round;stroke-miterlimit:10;" d="
					M606.64,158.65c0.02-1.47-0.02-2.38-0.02-2.38c-0.81-3.89-5.61-4.09-7.82-4.07c-2.84,0.02-5.06-0.5-6.77-1.22
					c1.06,2.72,3.39,4.23,3.39,4.23c-8.23-1.83-8.87-6.17-8.55-8.51c-2.92,10.21-6.71,10.64-6.71,10.64s0.03,0.91,0.17,2.38
					c-1.9,0.34-3.31,2.22-3.22,4.43c0.1,2.39,1.91,4.26,4.04,4.18c0.22-0.01,0.43-0.04,0.64-0.09c1.74,6.76,5.31,14.12,12.62,13.82
					c7.31-0.29,10.28-7.91,11.47-14.79c0.21,0.03,0.43,0.05,0.65,0.04c2.13-0.09,3.79-2.1,3.69-4.49
					C610.12,160.59,608.57,158.83,606.64,158.65z"/>
				<g>
					
						<path style="fill:none;stroke:#263238;stroke-width:0.9326;stroke-linecap:round;stroke-linejoin:round;stroke-miterlimit:10;" d="
						M591.96,170.1l1.26,0.91c0.33,0.24,0.78,0.23,1.1-0.02l1.16-0.89"/>
					
						<path style="fill:none;stroke:#263238;stroke-width:0.9326;stroke-linecap:round;stroke-linejoin:round;stroke-miterlimit:10;" d="
						M596.8,164.41c0,0,1.55-2.06,4.67-0.61"/>
					
						<path style="fill:none;stroke:#263238;stroke-width:0.9326;stroke-linecap:round;stroke-linejoin:round;stroke-miterlimit:10;" d="
						M590.03,164.41c0,0-1.55-2.07-4.67-0.61"/>
					
						<path style="fill:none;stroke:#263238;stroke-width:0.9326;stroke-linecap:round;stroke-linejoin:round;stroke-miterlimit:10;" d="
						M596.86,173.73c-3.33,2.37-6.15,0.25-6.15,0.25"/>
					<g>
						
							<path style="fill:none;stroke:#FFFFFF;stroke-width:0.9326;stroke-linecap:round;stroke-linejoin:round;stroke-miterlimit:10;" d="
							M610.07,346.87c-0.36,1.1-0.78,2.18-1.25,3.24"/>
						<g>
							
								<path style="fill:none;stroke:#FFFFFF;stroke-width:0.9326;stroke-linecap:round;stroke-linejoin:round;stroke-miterlimit:10;" d="
								M595.47,273.99l3.26,2.92c2.91,2.6,4.81,6.12,5.41,9.97c2.79,17.74,7.26,35.99,6.72,55.28"/>
						</g>
						
							<polyline style="fill:none;stroke:#FFFFFF;stroke-width:0.9326;stroke-linecap:round;stroke-linejoin:round;stroke-miterlimit:10;" points="
							607.81,274.52 602.64,281.91 603.29,281 						"/>
					</g>
					
						<path style="fill:none;stroke:#FFFFFF;stroke-width:0.9326;stroke-linecap:round;stroke-linejoin:round;stroke-miterlimit:10;" d="
						M606.3,355.2"/>
					<g>
						
							<line style="fill:none;stroke:#263238;stroke-width:0.9326;stroke-linecap:round;stroke-linejoin:round;stroke-miterlimit:10;" x1="587.38" y1="244.87" x2="588.86" y2="246.39"/>
						
							<path style="fill:none;stroke:#263238;stroke-width:0.9326;stroke-linecap:round;stroke-linejoin:round;stroke-miterlimit:10;" d="
							M576.67,223.92c1.5,6.31,4.39,12.48,8.16,17.73"/>
					</g>
				</g>
				<g>
					<g>
						
							<rect x="575.93" y="156.29" transform="matrix(0.9992 -0.04 0.04 0.9992 -5.8671 23.1776)" style="fill:#FFFFFF;stroke:#263238;stroke-width:0.9326;stroke-linecap:round;stroke-linejoin:round;stroke-miterlimit:10;" width="1.11" height="3.95"/>
						
							<rect x="609.77" y="154.92" transform="matrix(0.9992 -0.04 0.04 0.9992 -5.7809 24.508)" style="fill:#FFFFFF;stroke:#263238;stroke-width:0.9326;stroke-linecap:round;stroke-linejoin:round;stroke-miterlimit:10;" width="1.11" height="3.95"/>
					</g>
					
						<path style="fill:#92E3A9;stroke:#263238;stroke-width:0.9326;stroke-linecap:round;stroke-linejoin:round;stroke-miterlimit:10;" d="
						M592.63,138.38c-9.83,0.4-17.52,8.51-17.48,18.26c0,0.37,0.32,0.66,0.69,0.65l1.17-0.05c0.36-0.01,0.63-0.31,0.63-0.67
						c0-8.39,6.63-15.36,15.09-15.7s15.63,6.07,16.31,14.44c0.03,0.36,0.32,0.63,0.68,0.62l1.17-0.05c0.37-0.02,0.66-0.33,0.63-0.7
						C610.78,145.45,602.46,137.98,592.63,138.38z"/>
					<g>
						
							<path style="fill:#92E3A9;stroke:#263238;stroke-width:0.9326;stroke-linecap:round;stroke-linejoin:round;stroke-miterlimit:10;" d="
							M578.95,158.71c-0.08,0-0.17-0.01-0.25,0c-3.17,0.13-5.64,2.8-5.51,5.97c0.13,3.17,2.8,5.64,5.97,5.51
							c0.09,0,0.17-0.02,0.25-0.02L578.95,158.71z"/>
						
							<path style="fill:#FFFFFF;stroke:#263238;stroke-width:0.9326;stroke-linecap:round;stroke-linejoin:round;stroke-miterlimit:10;" d="
							M580.55,164.38c0.17,4.26,0.46,7.02-1,7.08c-1.47,0.06-2.08-2.69-2.25-6.95c-0.17-4.26,0.22-7.05,1.69-7.11
							S580.38,160.12,580.55,164.38z"/>
						
							<path style="fill:#92E3A9;stroke:#263238;stroke-width:0.9326;stroke-linecap:round;stroke-linejoin:round;stroke-miterlimit:10;" d="
							M607.9,157.55c0.08-0.01,0.17-0.02,0.25-0.02c3.17-0.13,5.84,2.34,5.97,5.51c0.13,3.17-2.34,5.84-5.51,5.97
							c-0.09,0-0.17,0-0.25,0L607.9,157.55z"/>
						
							<path style="fill:#FFFFFF;stroke:#263238;stroke-width:0.9326;stroke-linecap:round;stroke-linejoin:round;stroke-miterlimit:10;" d="
							M606.76,163.33c0.17,4.26,0.1,7.04,1.57,6.98c1.47-0.06,1.86-2.85,1.69-7.11c-0.17-4.26-0.79-7.01-2.25-6.95
							C606.3,156.31,606.59,159.07,606.76,163.33z"/>
					</g>
				</g>
				
					<path style="fill:none;stroke:#263238;stroke-width:0.9326;stroke-linecap:round;stroke-linejoin:round;stroke-miterlimit:10;" d="
					M583.17,160.63c0,0,3.81-3.15,7.42-0.3"/>
				
					<path style="fill:none;stroke:#263238;stroke-width:0.9326;stroke-linecap:round;stroke-linejoin:round;stroke-miterlimit:10;" d="
					M604.08,159.95c0,0-4.05-2.83-7.42,0.3"/>
			</g>
			
				<path style="fill:#92E3A9;stroke:#263238;stroke-width:0.9326;stroke-linecap:round;stroke-linejoin:round;stroke-miterlimit:10;" d="
				M586.38,185.51c0,0,2.29,5.72,10.75,7.02c0,0-3.38,6.98-7.99,4.25c-5.52-3.27-6.59-10.09-6.59-10.09L586.38,185.51z"/>
			
				<path style="fill:#92E3A9;stroke:#263238;stroke-width:0.9326;stroke-linecap:round;stroke-linejoin:round;stroke-miterlimit:10;" d="
				M601.88,186.22c0,0,0.27,5.15-5.22,6.5c0,0,4.1,6.73,7.47,3.03c3.37-3.7,0.76-8.83,0.76-8.83L601.88,186.22z"/>
			<g>
				
					<circle style="fill:#92E3A9;stroke:#263238;stroke-width:0.9326;stroke-linecap:round;stroke-linejoin:round;stroke-miterlimit:10;" cx="599.05" cy="206.07" r="0.99"/>
				
					<circle style="fill:#92E3A9;stroke:#263238;stroke-width:0.9326;stroke-linecap:round;stroke-linejoin:round;stroke-miterlimit:10;" cx="600.37" cy="225.76" r="0.99"/>
				
					<circle style="fill:#92E3A9;stroke:#263238;stroke-width:0.9326;stroke-linecap:round;stroke-linejoin:round;stroke-miterlimit:10;" cx="601.65" cy="245.92" r="0.99"/>
			</g>
			
				<path style="fill:#FFFFFF;stroke:#263238;stroke-width:0.9326;stroke-linecap:round;stroke-linejoin:round;stroke-miterlimit:10;" d="
				M641.95,215.96"/>
			<g>
				<path style="fill:#FFFFFF;" d="M690.76,118.9H488.14c-0.94,0-1.7-0.76-1.7-1.7v-3.65c0-0.94,0.76-1.7,1.7-1.7h202.62
					c0.94,0,1.7,0.76,1.7,1.7v3.65C692.46,118.14,691.7,118.9,690.76,118.9z"/>
				
					<line style="fill:none;stroke:#263238;stroke-width:0.9326;stroke-linecap:round;stroke-linejoin:round;stroke-miterlimit:10;" x1="690.42" y1="118.9" x2="488.48" y2="118.9"/>
				
					<line style="fill:none;stroke:#263238;stroke-width:0.9326;stroke-linecap:round;stroke-linejoin:round;stroke-miterlimit:10;" x1="488.48" y1="111.85" x2="690.42" y2="111.85"/>
				<g>
					
						<path style="fill:#FFFFFF;stroke:#263238;stroke-width:0.9326;stroke-linecap:round;stroke-linejoin:round;stroke-miterlimit:10;" d="
						M551.34,159.29c0,0-8.35-1.16-8.8,1.07s-0.2,5.83,1.24,7c2.72,2.22,2.22,6.37,2.22,6.37l6.98-0.68l0.19-3.5
						c0.31-0.98,0.86-2.09,1.87-3.03c2.52-2.37,1.52-5.03,1.09-8.17c-0.44-3.14-2.51-1.76-2.69-0.12c-0.18,1.64,0.36,4.36,0.36,4.36
						L551.34,159.29z"/>
					
						<path style="fill:#FFFFFF;stroke:#263238;stroke-width:0.9326;stroke-linecap:round;stroke-linejoin:round;stroke-miterlimit:10;" d="
						M553.3,162.37c0,0-1.97,0.41-3.58,3.24"/>
					<g>
						<path style="fill:#263238;" d="M553.3,163.11h-10.12c-1.51,0-2.87-0.65-3.64-1.74c-0.76-1.09-0.77-2.39-0.03-3.49c0,0,0,0,0,0
							l5.06-7.43c0.76-1.11,2.13-1.77,3.66-1.77c1.54,0,2.91,0.66,3.66,1.77l5.06,7.43c0.75,1.1,0.74,2.4-0.03,3.49
							C556.18,162.46,554.82,163.11,553.3,163.11z M541.27,158.71c-0.39,0.57-0.38,1.25,0.01,1.81c0.4,0.56,1.1,0.9,1.89,0.9h10.12
							c0.79,0,1.5-0.34,1.89-0.9c0.4-0.57,0.4-1.24,0.01-1.81l-5.06-7.42c-0.39-0.58-1.11-0.92-1.91-0.92
							c-0.8,0-1.51,0.35-1.91,0.92L541.27,158.71L541.27,158.71z"/>
					</g>
					
						<path style="fill:#FFFFFF;stroke:#263238;stroke-width:0.9326;stroke-linecap:round;stroke-linejoin:round;stroke-miterlimit:10;" d="
						M545.21,159.39c0.52,2.64,0.2,3.58-0.98,3.44c-1.18-0.15-2.4-3.37-0.75-4.12c1.66-0.75,3.01-1.3,3.01-1.3
						c2.13-0.94,3.49-0.12,3.49-0.12c2.38-0.82,2.79,0.91,2.79,0.91s1.72,4.99,0.29,5.16c-1.43,0.18-2.61-4.17-2.61-4.17
						s1.8,4.76,0.15,4.84c-1.65,0.08-2.59-4.62-2.59-4.62s1.07,4.13-0.48,4.27C545.98,163.82,545.21,159.39,545.21,159.39z"/>
				</g>
				
					<rect x="547.35" y="117.01" style="fill:#FFFFFF;stroke:#263238;stroke-width:0.9326;stroke-linecap:round;stroke-linejoin:round;stroke-miterlimit:10;" width="1.64" height="32.83"/>
				
					<path style="fill:#FFFFFF;stroke:#263238;stroke-width:0.9326;stroke-linecap:round;stroke-linejoin:round;stroke-miterlimit:10;" d="
					M549.9,149.33l-1.07,1.57c-0.26,0.38-0.92,0.38-1.17,0l-1.07-1.57c-0.25-0.37,0.07-0.84,0.59-0.84h2.13
					C549.83,148.5,550.15,148.96,549.9,149.33z"/>
				
					<path style="fill:#FFFFFF;stroke:#263238;stroke-width:0.9326;stroke-linecap:round;stroke-linejoin:round;stroke-miterlimit:10;" d="
					M549.12,147.33h-1.75c-0.48,0-0.87-0.39-0.87-0.87v-7.29c0-0.48,0.39-0.87,0.87-0.87h1.75c0.48,0,0.87,0.39,0.87,0.87v7.29
					C549.99,146.94,549.6,147.33,549.12,147.33z"/>
				
					<path style="fill:#FFFFFF;stroke:#263238;stroke-width:0.9326;stroke-linecap:round;stroke-linejoin:round;stroke-miterlimit:10;" d="
					M549.12,119.74h-1.75c-0.48,0-0.87-0.39-0.87-0.87v-7.29c0-0.48,0.39-0.87,0.87-0.87h1.75c0.48,0,0.87,0.39,0.87,0.87v7.29
					C549.99,119.35,549.6,119.74,549.12,119.74z"/>
				<g>
					<path style="fill:#263238;" d="M529.51,163.11h-10.12c-1.51,0-2.88-0.65-3.64-1.74c-0.76-1.09-0.77-2.39-0.03-3.49c0,0,0,0,0,0
						l5.06-7.43c0.76-1.11,2.13-1.77,3.66-1.77c1.54,0,2.91,0.66,3.66,1.77l5.06,7.43c0.75,1.1,0.74,2.4-0.03,3.49
						C532.39,162.46,531.03,163.11,529.51,163.11z M517.48,158.71c-0.39,0.57-0.38,1.25,0.01,1.81c0.4,0.56,1.1,0.9,1.89,0.9h10.12
						c0.79,0,1.49-0.34,1.89-0.9c0.4-0.57,0.4-1.24,0.01-1.81l-5.06-7.42c-0.39-0.58-1.11-0.92-1.91-0.92
						c-0.8,0-1.51,0.35-1.91,0.92L517.48,158.71L517.48,158.71z"/>
				</g>
				
					<rect x="523.56" y="117.01" style="fill:#FFFFFF;stroke:#263238;stroke-width:0.9326;stroke-linecap:round;stroke-linejoin:round;stroke-miterlimit:10;" width="1.64" height="32.83"/>
				
					<path style="fill:#FFFFFF;stroke:#263238;stroke-width:0.9326;stroke-linecap:round;stroke-linejoin:round;stroke-miterlimit:10;" d="
					M526.11,149.33l-1.07,1.57c-0.26,0.38-0.92,0.38-1.17,0l-1.07-1.57c-0.25-0.37,0.07-0.84,0.59-0.84h2.14
					C526.04,148.5,526.36,148.96,526.11,149.33z"/>
				
					<path style="fill:#FFFFFF;stroke:#263238;stroke-width:0.9326;stroke-linecap:round;stroke-linejoin:round;stroke-miterlimit:10;" d="
					M525.33,147.33h-1.75c-0.48,0-0.87-0.39-0.87-0.87v-7.29c0-0.48,0.39-0.87,0.87-0.87h1.75c0.48,0,0.87,0.39,0.87,0.87v7.29
					C526.2,146.94,525.81,147.33,525.33,147.33z"/>
				
					<path style="fill:#FFFFFF;stroke:#263238;stroke-width:0.9326;stroke-linecap:round;stroke-linejoin:round;stroke-miterlimit:10;" d="
					M525.33,119.74h-1.75c-0.48,0-0.87-0.39-0.87-0.87v-7.29c0-0.48,0.39-0.87,0.87-0.87h1.75c0.48,0,0.87,0.39,0.87,0.87v7.29
					C526.2,119.35,525.81,119.74,525.33,119.74z"/>
				<g>
					<path style="fill:#263238;" d="M632.61,163.11h-10.12c-1.51,0-2.87-0.65-3.64-1.74c-0.76-1.09-0.77-2.39-0.03-3.49c0,0,0,0,0,0
						l5.06-7.43c0.76-1.11,2.13-1.77,3.66-1.77c1.54,0,2.91,0.66,3.66,1.77l5.06,7.43c0.75,1.1,0.74,2.4-0.03,3.49
						C635.49,162.46,634.13,163.11,632.61,163.11z M620.58,158.71c-0.39,0.57-0.38,1.25,0.01,1.81c0.4,0.56,1.1,0.9,1.89,0.9h10.12
						c0.79,0,1.5-0.34,1.89-0.9c0.4-0.57,0.4-1.24,0.01-1.81l-5.06-7.42c-0.39-0.58-1.11-0.92-1.91-0.92s-1.51,0.35-1.91,0.92
						L620.58,158.71L620.58,158.71z"/>
				</g>
				
					<rect x="626.65" y="117.01" style="fill:#FFFFFF;stroke:#263238;stroke-width:0.9326;stroke-linecap:round;stroke-linejoin:round;stroke-miterlimit:10;" width="1.64" height="32.83"/>
				
					<path style="fill:#FFFFFF;stroke:#263238;stroke-width:0.9326;stroke-linecap:round;stroke-linejoin:round;stroke-miterlimit:10;" d="
					M629.21,149.33l-1.07,1.57c-0.26,0.38-0.92,0.38-1.17,0l-1.07-1.57c-0.25-0.37,0.07-0.84,0.59-0.84h2.13
					C629.13,148.5,629.46,148.96,629.21,149.33z"/>
				
					<path style="fill:#FFFFFF;stroke:#263238;stroke-width:0.9326;stroke-linecap:round;stroke-linejoin:round;stroke-miterlimit:10;" d="
					M628.43,147.33h-1.75c-0.48,0-0.87-0.39-0.87-0.87v-7.29c0-0.48,0.39-0.87,0.87-0.87h1.75c0.48,0,0.87,0.39,0.87,0.87v7.29
					C629.29,146.94,628.9,147.33,628.43,147.33z"/>
				
					<path style="fill:#FFFFFF;stroke:#263238;stroke-width:0.9326;stroke-linecap:round;stroke-linejoin:round;stroke-miterlimit:10;" d="
					M628.43,119.74h-1.75c-0.48,0-0.87-0.39-0.87-0.87v-7.29c0-0.48,0.39-0.87,0.87-0.87h1.75c0.48,0,0.87,0.39,0.87,0.87v7.29
					C629.29,119.35,628.9,119.74,628.43,119.74z"/>
				<g>
					<path style="fill:#263238;" d="M655.28,163.11h-10.12c-1.51,0-2.87-0.65-3.64-1.74c-0.76-1.09-0.77-2.39-0.03-3.49c0,0,0,0,0,0
						l5.06-7.43c0.76-1.11,2.13-1.77,3.66-1.77s2.91,0.66,3.66,1.77l5.06,7.43c0.75,1.1,0.74,2.4-0.03,3.49
						C658.16,162.46,656.8,163.11,655.28,163.11z M643.25,158.71c-0.39,0.57-0.38,1.25,0.01,1.81c0.4,0.56,1.1,0.9,1.89,0.9h10.12
						c0.79,0,1.5-0.34,1.89-0.9c0.4-0.57,0.4-1.24,0.01-1.81l-5.06-7.42c-0.39-0.58-1.11-0.92-1.91-0.92s-1.51,0.35-1.91,0.92
						L643.25,158.71L643.25,158.71z"/>
				</g>
				
					<rect x="649.33" y="117.01" style="fill:#FFFFFF;stroke:#263238;stroke-width:0.9326;stroke-linecap:round;stroke-linejoin:round;stroke-miterlimit:10;" width="1.64" height="32.83"/>
				
					<path style="fill:#FFFFFF;stroke:#263238;stroke-width:0.9326;stroke-linecap:round;stroke-linejoin:round;stroke-miterlimit:10;" d="
					M651.88,149.33l-1.07,1.57c-0.26,0.38-0.92,0.38-1.17,0l-1.07-1.57c-0.25-0.37,0.07-0.84,0.59-0.84h2.13
					C651.81,148.5,652.13,148.96,651.88,149.33z"/>
				
					<path style="fill:#FFFFFF;stroke:#263238;stroke-width:0.9326;stroke-linecap:round;stroke-linejoin:round;stroke-miterlimit:10;" d="
					M651.1,147.33h-1.75c-0.48,0-0.87-0.39-0.87-0.87v-7.29c0-0.48,0.39-0.87,0.87-0.87h1.75c0.48,0,0.87,0.39,0.87,0.87v7.29
					C651.96,146.94,651.58,147.33,651.1,147.33z"/>
				
					<path style="fill:#FFFFFF;stroke:#263238;stroke-width:0.9326;stroke-linecap:round;stroke-linejoin:round;stroke-miterlimit:10;" d="
					M651.1,119.74h-1.75c-0.48,0-0.87-0.39-0.87-0.87v-7.29c0-0.48,0.39-0.87,0.87-0.87h1.75c0.48,0,0.87,0.39,0.87,0.87v7.29
					C651.96,119.35,651.58,119.74,651.1,119.74z"/>
			</g>
			
				<polygon style="fill:#92E3A9;stroke:#263238;stroke-width:0.9326;stroke-linecap:round;stroke-linejoin:round;stroke-miterlimit:10;" points="
				554.08,171.47 554.61,175.74 543.73,176.25 544.64,171.97 			"/>
			<g>
				
					<path style="fill:#FFFFFF;stroke:#263238;stroke-width:0.9326;stroke-linecap:round;stroke-linejoin:round;stroke-miterlimit:10;" d="
					M572.53,207.36c0,0-18.9,17.37-23.25,17.64c-1.07,0.07-2.01,0.73-2.9,0.13c-2.01-1.37-4.89-4.24-4.48-15.94
					c0.23-6.41,4.09-33.08,4.09-33.08l7.02-0.31l1.7,30.01c5.99-6.23,16.43-14.84,16.44-14.84c0.07-0.03,0,0,0,0
					C574.4,201.39,572.53,207.36,572.53,207.36z"/>
				<g>
					
						<path style="fill:#FFFFFF;stroke:#263238;stroke-width:0.9326;stroke-linecap:round;stroke-linejoin:round;stroke-miterlimit:10;" d="
						M620.17,231.51c0.8-3.48,2.63-5.75,2.63-5.75"/>
					
						<path style="fill:none;stroke:#263238;stroke-width:0.9326;stroke-linecap:round;stroke-linejoin:round;stroke-miterlimit:10;" d="
						M552.56,212.87c0.73-0.32,2.47-3.57,2.11-9.13"/>
				</g>
			</g>
		</g>
		<g>
			
				<path style="fill:#FFFFFF;stroke:#263238;stroke-width:0.9326;stroke-linecap:round;stroke-linejoin:round;stroke-miterlimit:10;" d="
				M559.27,141.63v-11.95c0-1.2,0.98-2.18,2.18-2.18h18.75c1.2,0,2.18,0.98,2.18,2.18v11.95c0,1.2-0.98,2.18-2.18,2.18h-6.53
				l0.53,4.55h-3.37v4.29l-3.99-7.01h3.27l-0.35-1.84h-8.31C560.25,143.81,559.27,142.84,559.27,141.63z"/>
			<g>
				
					<line style="fill:none;stroke:#263238;stroke-width:0.9326;stroke-linecap:round;stroke-linejoin:round;stroke-miterlimit:10;" x1="575.53" y1="131.59" x2="562.85" y2="131.59"/>
				
					<line style="fill:none;stroke:#263238;stroke-width:0.9326;stroke-linecap:round;stroke-linejoin:round;stroke-miterlimit:10;" x1="578.81" y1="134.98" x2="562.85" y2="134.98"/>
				
					<line style="fill:none;stroke:#263238;stroke-width:0.9326;stroke-linecap:round;stroke-linejoin:round;stroke-miterlimit:10;" x1="576.35" y1="138.36" x2="562.85" y2="138.36"/>
			</g>
		</g>
	</g>
</g>
<g id="Character_1">
	<g>
		<ellipse style="fill:#92E3A9;" cx="142.04" cy="430.53" rx="46.69" ry="6.87"/>
		<g>
			<g>
				<g>
					<circle style="fill:#92E3A9;" cx="137.95" cy="239.74" r="81.31"/>
					
						<path style="fill:#FFFFFF;stroke:#263238;stroke-width:0.8738;stroke-linecap:round;stroke-linejoin:round;stroke-miterlimit:10;" d="
						M100.45,292.91c0,0,2.06,11.97-4.92,25.49h87.41c0,0-3.97-6.29-8.19-25.49H100.45z"/>
					
						<path style="fill:#263238;stroke:#263238;stroke-width:0.8738;stroke-linecap:round;stroke-linejoin:round;stroke-miterlimit:10;" d="
						M120.38,295.68c-9.73,0.78-18.21,6.95-21.96,15.97c-0.95,2.28-1.92,4.59-2.85,6.75c-5.31,12.31-0.29,30.22,13.32,30.22h30.55
						h31.78c12.33,0,15.7-15.62,12.75-27.38c-1.9-7.56-5.73-15.15-12.27-20.47C162.94,293.66,137.4,294.32,120.38,295.68z"/>
					<g>
						<g>
							
								<path style="fill:#FFFFFF;stroke:#263238;stroke-width:0.8738;stroke-linecap:round;stroke-linejoin:round;stroke-miterlimit:10;" d="
								M60.84,282.47c0,0-11.18,6.76-11.55,10.44h13.73l5.43-3.93l-1.84,3.93h4.18c0,0,4.42-3.44,4.67-7.25l-0.49-3.19l-7.98-3.56
								L60.84,282.47z"/>
							<g>
								<defs>
									<path id="XMLID_2_" d="M191.8,257.64c0,0-1.8-11.77-5.73-28.72s-11.61-18.28-11.61-18.28c-0.03,0.01-0.05,0.03-0.07,0.05
										c-9.96-4.3-36.03-6.62-36.03-6.62h-1.2c0,0-26.07,2.32-36.03,6.62c-0.02-0.01-0.05-0.04-0.07-0.05
										c0,0-7.67,1.33-11.6,18.28s-5.73,28.72-5.73,28.72s-7.11,1.92-19.88,18.04c-2.02,2.54-3.71,5.33-5.1,8.27l0,0
										c0,0,9.83-3.24,16.7,1.72c0,0,22.54-9.57,23.67-19.65c0.04-0.35,0.09-0.75,0.14-1.19c0.64,15.3,1.19,28.08,1.19,28.08
										h24.64h11.93h1.48h17.36h19.21c0,0,0.55-12.78,1.19-28.08c0.05,0.43,0.1,0.83,0.14,1.19
										c1.14,10.08,26.09,21.38,26.09,21.38c6.83-10.52,16.77-4.72,16.77-4.72L191.8,257.64z"/>
								</defs>
								<use xlink:href="#XMLID_2_"  style="overflow:visible;fill:#FFFFFF;"/>
								<clipPath id="XMLID_12_">
									<use xlink:href="#XMLID_2_"  style="overflow:visible;"/>
								</clipPath>
								<path style="opacity:0.3;clip-path:url(#XMLID_12_);" d="M99.12,266.02c0.03-0.3,0.07-0.64,0.11-1l-1.62-35.41
									c0,0-4.5,0.92-3.21,11.79c1.29,10.87,4.05,8.97,2.49,13.19c-1.57,4.22-7.37-0.61-9.3,2.95s10.84,2.83,5.55,12.14
									c-5.28,9.3-17.69,15.98-17.69,15.98S97.99,276.1,99.12,266.02z"/>
								<g style="opacity:0.3;clip-path:url(#XMLID_12_);">
									<path d="M176.75,266.02C176.72,265.72,179.69,266.24,176.75,266.02l0.88-30.3c0,0-0.21,14.66,1.35,18.88
										c1.57,4.22,7.37-0.61,9.3,2.95s-10.84,2.83-5.55,12.14c5.28,9.3,17.69,15.98,17.69,15.98S177.89,276.1,176.75,266.02z"/>
								</g>
								<path style="opacity:0.3;clip-path:url(#XMLID_12_);" d="M175.61,272.9c-0.48,11.47-0.85,20.01-0.85,20.01h-24.64h-11.93
									h-1.48h-17.36h-11.68C152.63,292.91,175.61,272.9,175.61,272.9L175.61,272.9z"/>
								
									<use xlink:href="#XMLID_2_"  style="overflow:visible;fill:none;stroke:#263238;stroke-width:0.8738;stroke-linecap:round;stroke-linejoin:round;stroke-miterlimit:10;"/>
							</g>
							<g>
								
									<path style="fill:none;stroke:#263238;stroke-width:0.8738;stroke-linecap:round;stroke-linejoin:round;stroke-miterlimit:10;" d="
									M86.11,257.57c0,0,5.45-0.56,9.83,3.38"/>
								
									<path style="fill:none;stroke:#263238;stroke-width:0.8738;stroke-linecap:round;stroke-linejoin:round;stroke-miterlimit:10;" d="
									M93.14,230.65c0,0,4.63,1.01,5.68,23.45l-1.38-29.47"/>
								
									<line style="fill:none;stroke:#263238;stroke-width:0.8738;stroke-linecap:round;stroke-linejoin:round;stroke-miterlimit:10;" x1="98.88" y1="257.23" x2="99.09" y2="261.78"/>
								
									<path style="fill:none;stroke:#263238;stroke-width:0.8738;stroke-linecap:round;stroke-linejoin:round;stroke-miterlimit:10;" d="
									M189.42,257.57c0,0-5.45-0.56-9.83,3.38"/>
								
									<path style="fill:none;stroke:#263238;stroke-width:0.8738;stroke-linecap:round;stroke-linejoin:round;stroke-miterlimit:10;" d="
									M177.82,230.65c0.09-2.01,0.18-4.01,0.27-6.02"/>
							</g>
							<g>
								<defs>
									<path id="XMLID_1_" d="M151.77,205.64c-1.22,6.06-7.08,8.25-14.13,8.25c-7.05,0-12.9-2.18-14.13-8.22l0.28-0.04
										c1.52-0.21,2.73-1.34,3.06-2.78c0.08-0.27,0.11-0.56,0.11-0.86v-7.11h21.6v7.11c0,0.45,0.08,0.9,0.24,1.3v0.01
										c0.46,1.22,1.56,2.15,2.93,2.34H151.77z"/>
								</defs>
								<use xlink:href="#XMLID_1_"  style="overflow:visible;fill:#FFFFFF;"/>
								<clipPath id="XMLID_13_">
									<use xlink:href="#XMLID_1_"  style="overflow:visible;"/>
								</clipPath>
								<path style="clip-path:url(#XMLID_13_);fill:#263238;" d="M148.42,200.21c-3.59,3.52-7.58,5.7-11.42,5.87
									c-4.04,0.18-8.64-3.1-10.53-6.32c0.08-0.27,0.11-0.56,0.11-0.86v-2.19l21.6,0.23v1.96
									C148.18,199.37,148.73,199.91,148.42,200.21z"/>
								
									<use xlink:href="#XMLID_1_"  style="overflow:visible;fill:none;stroke:#263238;stroke-width:0.8738;stroke-linecap:round;stroke-linejoin:round;stroke-miterlimit:10;"/>
							</g>
							<g>
								<path style="fill:#263238;" d="M121.86,179.62c0,0-7.49-8.48-6.51-20.14c0.98-11.67,10.56-11.67,10.56-11.67
									s11.55-10.19,24.44-3.81c12.9,6.39,12.04,28.49,2.46,34.02L121.86,179.62z"/>
								
									<path style="fill:#FFFFFF;stroke:#263238;stroke-width:0.8738;stroke-linecap:round;stroke-linejoin:round;stroke-miterlimit:10;" d="
									M154.88,173.92c0.11-1.94,0.1-3.14,0.1-3.14c-0.86-5.16-7.17-5.68-10.07-5.77c-12.15-0.4-15.35-7.86-15.35-7.86
									c-7.37-2.21-9.46,13.63-9.46,13.63s-0.01,1.2,0.1,3.14c-2.52,0.34-4.48,2.75-4.48,5.67c0,3.15,2.28,5.71,5.09,5.71
									c0.29,0,0.57-0.03,0.85-0.09l1.32,7.45c0.25,1.67,1.82,5.62,3.23,6.55c2.96,1.97,7.75,4.86,11.33,4.86
									c3.07,0,7.39-2.55,10.59-4.27c1.78-0.96,3.74-4.83,3.91-6.85l0.83-7.52c0.28,0.05,1.11-0.13,1.4-0.13
									c2.81,0,5.1-2.56,5.1-5.71C159.36,176.66,157.4,174.26,154.88,173.92z"/>
								<g>
									<g>
										
											<rect x="116.35" y="169.12" style="fill:#FFFFFF;stroke:#263238;stroke-width:0.8738;stroke-linecap:round;stroke-linejoin:round;stroke-miterlimit:10;" width="1.32" height="4.7"/>
										
											<rect x="156.68" y="169.12" style="fill:#FFFFFF;stroke:#263238;stroke-width:0.8738;stroke-linecap:round;stroke-linejoin:round;stroke-miterlimit:10;" width="1.32" height="4.7"/>
									</g>
									
										<path style="fill:#FFFFFF;stroke:#263238;stroke-width:0.8738;stroke-linecap:round;stroke-linejoin:round;stroke-miterlimit:10;" d="
										M137.17,148.59c-11.71,0-21.25,9.28-21.68,20.89c-0.02,0.44,0.35,0.8,0.79,0.8h1.4c0.43,0,0.76-0.34,0.78-0.77
										c0.4-9.99,8.63-17.96,18.71-17.96c10.09,0,18.31,7.97,18.71,17.96c0.02,0.42,0.35,0.77,0.78,0.77h1.4
										c0.44,0,0.8-0.36,0.79-0.8C158.43,157.87,148.88,148.59,137.17,148.59z"/>
									<g>
										<path style="fill:#263238;stroke:#263238;stroke-width:0.8738;stroke-miterlimit:10;" d="M119.92,172.13
											c-0.1,0-0.2-0.02-0.3-0.02c-3.78,0-6.84,3.06-6.84,6.84c0,3.78,3.06,6.84,6.84,6.84c0.1,0,0.2-0.01,0.3-0.02V172.13z"/>
										
											<path style="fill:#FFFFFF;stroke:#263238;stroke-width:0.8738;stroke-linecap:round;stroke-linejoin:round;stroke-miterlimit:10;" d="
											M121.55,178.96c0,5.08,0.22,8.38-1.53,8.38c-1.75,0-2.35-3.3-2.35-8.38c0-5.08,0.6-8.38,2.35-8.38
											C121.77,170.58,121.55,173.88,121.55,178.96z"/>
										<path style="fill:#263238;stroke:#263238;stroke-width:0.8738;stroke-miterlimit:10;" d="M154.43,172.13
											c0.1,0,0.2-0.02,0.3-0.02c3.78,0,6.84,3.06,6.84,6.84c0,3.78-3.06,6.84-6.84,6.84c-0.1,0-0.2-0.01-0.3-0.02V172.13z"/>
										
											<path style="fill:#FFFFFF;stroke:#263238;stroke-width:0.8738;stroke-linecap:round;stroke-linejoin:round;stroke-miterlimit:10;" d="
											M152.79,178.96c0,5.08-0.22,8.38,1.53,8.38c1.75,0,2.35-3.3,2.35-8.38c0-5.08-0.6-8.38-2.35-8.38
											C152.58,170.58,152.79,173.88,152.79,178.96z"/>
									</g>
								</g>
								
									<path style="fill:none;stroke:#263238;stroke-width:0.8738;stroke-linecap:round;stroke-linejoin:round;stroke-miterlimit:10;" d="
									M125.47,180.23c0,0,2.86,3.5,8.2,0.74"/>
								
									<path style="fill:none;stroke:#263238;stroke-width:0.75;stroke-linecap:round;stroke-linejoin:round;stroke-miterlimit:10;" d="
									M133.66,193.88c0,0,3.59,2.95,8.11,0"/>
								
									<path style="fill:none;stroke:#263238;stroke-width:0.8738;stroke-linecap:round;stroke-linejoin:round;stroke-miterlimit:10;" d="
									M124.68,175.52c0,0,5.18-3.94,9.78,0"/>
								
									<path style="fill:none;stroke:#263238;stroke-width:0.8738;stroke-linecap:round;stroke-linejoin:round;stroke-miterlimit:10;" d="
									M150.07,175.65c0,0-5.18-3.94-9.78,0"/>
								<g>
									
										<path style="fill:none;stroke:#263238;stroke-width:0.75;stroke-linecap:round;stroke-linejoin:round;stroke-miterlimit:10;" d="
										M141.47,188.36c0,0,0.46,2.56-4.23,2.5c-1.15-0.02-3.24-0.82-3.31-2.5"/>
								</g>
								<path style="fill:#263238;" d="M126.59,181.16c0.43,0.85,1.4,1.83,3.57,1.89c2.03,0.05,2.55-0.82,2.58-1.65
									C129.84,182.58,127.77,181.88,126.59,181.16z"/>
								
									<path style="fill:none;stroke:#263238;stroke-width:0.8738;stroke-linecap:round;stroke-linejoin:round;stroke-miterlimit:10;" d="
									M149.32,180.23c0,0-2.86,3.5-8.2,0.74"/>
								<path style="fill:#263238;" d="M148.2,181.16c-0.43,0.85-1.4,1.83-3.57,1.89c-2.03,0.05-2.55-0.82-2.58-1.65
									C144.95,182.58,147.03,181.88,148.2,181.16z"/>
								
									<path style="fill:none;stroke:#263238;stroke-width:0.8738;stroke-linecap:round;stroke-linejoin:round;stroke-miterlimit:10;" d="
									M128.37,142.94c0,0-2.62,1.47-2.33,5.65c0,0-0.92-2.82-4.3-1.6"/>
							</g>
							
								<path style="fill:#263238;stroke:#263238;stroke-width:0.8738;stroke-linecap:round;stroke-linejoin:round;stroke-miterlimit:10;" d="
								M137.76,216.98c7.26,0,13.43-4.63,15.73-11.1c-0.91-0.13-1.8-0.26-2.68-0.38c-2.7,4.38-7.53,7.3-13.05,7.3
								c-5.52,0-10.35-2.92-13.05-7.3c-0.87,0.12-1.77,0.25-2.68,0.38C124.34,212.35,130.51,216.98,137.76,216.98z"/>
							
								<path style="fill:none;stroke:#263238;stroke-width:0.8738;stroke-linecap:round;stroke-linejoin:round;stroke-miterlimit:10;" d="
								M176.27,264.83c0.44-9.75,0.89-19.5,1.33-29.25"/>
							<g style="opacity:0.3;">
								<polygon points="99.6,272.91 99.6,272.91 99.6,272.9 								"/>
							</g>
						</g>
						<g>
							
								<path style="fill:#FFFFFF;stroke:#263238;stroke-width:0.8738;stroke-linecap:round;stroke-linejoin:round;stroke-miterlimit:10;" d="
								M176.6,165.21v-10.77c0-1.08-0.88-1.96-1.96-1.96h-16.89c-1.08,0-1.96,0.88-1.96,1.96v10.77c0,1.08,0.88,1.96,1.96,1.96h5.88
								l-0.48,4.1h3.04v3.87l3.59-6.31h-2.95l0.31-1.66h7.49C175.72,167.17,176.6,166.3,176.6,165.21z"/>
							<g>
								
									<line style="fill:none;stroke:#263238;stroke-width:0.8738;stroke-linecap:round;stroke-linejoin:round;stroke-miterlimit:10;" x1="159" y1="156.17" x2="170.43" y2="156.17"/>
								
									<line style="fill:none;stroke:#263238;stroke-width:0.8738;stroke-linecap:round;stroke-linejoin:round;stroke-miterlimit:10;" x1="159" y1="159.22" x2="173.37" y2="159.22"/>
								
									<line style="fill:none;stroke:#263238;stroke-width:0.8738;stroke-linecap:round;stroke-linejoin:round;stroke-miterlimit:10;" x1="159" y1="162.27" x2="171.16" y2="162.27"/>
							</g>
						</g>
						<g>
							
								<path style="fill:#FFFFFF;stroke:#263238;stroke-width:0.8738;stroke-linecap:round;stroke-linejoin:round;stroke-miterlimit:10;" d="
								M228.4,287.7c0,3.18-4.99,5.17-11.14,5.17c-6.15,0-11.14-1.99-11.14-5.17s4.99-5.77,11.14-5.77
								C223.41,281.93,228.4,284.51,228.4,287.7z"/>
							<g>
								
									<path style="fill:#FFFFFF;stroke:#263238;stroke-width:0.8738;stroke-linecap:round;stroke-linejoin:round;stroke-miterlimit:10;" d="
									M210.05,291.72c0.3-0.07,0.54-1.75-2.17-2.99c-1.88-0.86-1.93-1.77-0.85-2.89c1.02-1.07,2.92-2.06,4.34-1.65
									c2.31,0.66,3.84,5.47,4.87,4.43c1.55-0.4-0.32-4.81-3.1-6.26c4.99,1.23,5.24,6.96,7.54,6.54c1.76-0.34-1.27-6.06-3.91-7.75
									c1.76,0.74,3.64,2.47,4.3,3.43c1.67,2.44,1.86,3.25,2.97,2.9c1.48-0.47-2.05-5.81-2.49-6.39c2.22,0.88,2.64,2.74,3.32,3.49
									s0.99,2,1.94,1.51c1.07-0.55,0.07-2.23-0.57-3.25c-3.04-4.85-8.02-5.67-12.76-5.06c-3.75,0.48-8.07,2.07-10.37,5.06
									c-1.27,1.66-1.24,3.43-0.32,5.3C203.64,289.82,206.5,292.52,210.05,291.72z"/>
							</g>
						</g>
						<path style="fill:#BFBFBF;stroke:#263238;stroke-width:0.8738;stroke-miterlimit:10;" d="M231.32,296.48H47.3
							c-0.55,0-0.99-0.44-0.99-0.99v-1.58c0-0.55,0.44-0.99,0.99-0.99h184.03c0.55,0,0.99,0.44,0.99,0.99v1.58
							C232.32,296.04,231.87,296.48,231.32,296.48z"/>
						<g>
							<g>
								<path style="fill:#263238;" d="M52.69,292.91l-13.54-41.16c-0.23-0.7,0.29-1.41,1.02-1.41h42.74l15.23,42.57H52.69z"/>
								
									<path style="fill:#FFFFFF;stroke:#263238;stroke-width:0.8738;stroke-linecap:round;stroke-linejoin:round;stroke-miterlimit:10;" d="
									M84.08,250.34l14,40.17h37.5v1.42c0,0.54-0.44,0.98-0.98,0.98H95.69l-13.47-40.96c-0.26-0.79,0.33-1.61,1.16-1.61H84.08z"/>
							</g>
							<path style="fill:#FFFFFF;" d="M64.23,271.63c-0.16-0.77-0.52-1.45-0.94-1.86c0.38-0.5,0.99-0.81,1.74-0.81
								c1.48,0,2.92,1.2,3.24,2.67c0.31,1.47-0.63,2.67-2.1,2.67c-0.75,0-1.49-0.31-2.08-0.81
								C64.32,273.07,64.4,272.39,64.23,271.63z"/>
						</g>
						<g>
							
								<path style="fill:#FFFFFF;stroke:#263238;stroke-width:0.8738;stroke-linecap:round;stroke-linejoin:round;stroke-miterlimit:10;" d="
								M150.88,292.91h13.66c3.48-2.46,5.79-6.74,5.79-11.61v-6.44c0-1.02-0.83-1.85-1.85-1.85h-21.53c-1.02,0-1.85,0.83-1.85,1.85
								v6.44C145.1,286.18,147.4,290.45,150.88,292.91z"/>
							
								<path style="fill:#FFFFFF;stroke:#263238;stroke-width:0.8738;stroke-linecap:round;stroke-linejoin:round;stroke-miterlimit:10;" d="
								M174.22,275.75c-1.36-0.79-2.66-0.76-3.89-0.17v2.31c0.55-0.09,1.12,0,1.71,0.34c1.94,1.12,1.52,3.41,0.17,5.74
								c-0.85,1.46-1.87,2.6-2.99,2.96c-0.4,0.98-0.9,1.89-1.49,2.74c2.57,0.56,4.91-1.63,6.75-4.8
								C176.65,281.16,177.3,277.53,174.22,275.75z"/>
							
								<path style="fill:none;stroke:#263238;stroke-width:0.8738;stroke-linecap:round;stroke-linejoin:round;stroke-miterlimit:10;" d="
								M158,262.88c0.45-1.45,0.73-3.1,0.73-4.98c0-9.4-8.84-10.5-8.84-21.19"/>
							
								<path style="fill:none;stroke:#263238;stroke-width:0.8738;stroke-linecap:round;stroke-linejoin:round;stroke-miterlimit:10;" d="
								M151.73,271.17c0,0,2.15-1.19,4.07-3.85"/>
							
								<path style="fill:none;stroke:#263238;stroke-width:0.8738;stroke-linecap:round;stroke-linejoin:round;stroke-miterlimit:10;" d="
								M157.23,245.65c-0.49-1.07-0.75-2.05-0.6-2.95"/>
							
								<path style="fill:none;stroke:#263238;stroke-width:0.8738;stroke-linecap:round;stroke-linejoin:round;stroke-miterlimit:10;" d="
								M164.12,258.85c-0.46-2.94-2.15-5.7-3.81-8.21"/>
							
								<path style="fill:none;stroke:#263238;stroke-width:0.8738;stroke-linecap:round;stroke-linejoin:round;stroke-miterlimit:10;" d="
								M159.02,271.28c0,0,2.92-1.24,4.51-6.78"/>
						</g>
					</g>
				</g>
			</g>
			<path style="fill:#FFFFFF;stroke:#263238;stroke-width:0.8738;stroke-miterlimit:10;" d="M176.86,417.92h-74.88
				c-5.47,0-9.9-4.43-9.9-9.9v-49.49c0-5.47,4.43-9.9,9.9-9.9h74.88c5.47,0,9.9,4.43,9.9,9.9v49.49
				C186.76,413.48,182.33,417.92,176.86,417.92z"/>
			<g>
				<g>
					<g>
						
							<path style="fill:#FFFFFF;stroke:#263238;stroke-width:0.8738;stroke-linecap:round;stroke-linejoin:round;stroke-miterlimit:10;" d="
							M115.75,396.3l1.13,19.77l0.13,0.17c3.93,5.17,11.54,5.08,15.36-0.17l0,0l0.42-19.77H115.75z"/>
						<path style="fill:#BFBFBF;stroke:#263238;stroke-width:0.8738;stroke-miterlimit:10;" d="M136.53,435.39L136.53,435.39
							c-7.6,1.33-15.35,1.33-22.94,0l0,0c0,0-0.92-0.84-1.81-2.36c-1.58-2.74-1.67-6.1-0.38-8.98l4.58-8.16l18.11,0.21l4.08,7.44
							c1.98,3.62,1.61,8.12-1.07,11.26C136.76,435.18,136.53,435.39,136.53,435.39z"/>
						<path style="fill:#BFBFBF;stroke:#263238;stroke-width:0.8738;stroke-miterlimit:10;" d="M132.08,425.13
							c1.09,0.47,2.16,1.07,3.19,1.8"/>
						<path style="fill:#BFBFBF;stroke:#263238;stroke-width:0.8738;stroke-miterlimit:10;" d="M115.02,426.93
							c4.02-2.69,8.95-3.85,13.74-2.85"/>
					</g>
					<path style="fill:#263238;" d="M106.03,314.71l8,91.68h20.69c0,0,2.05-55.98,3.36-92.36c0.33-9.12-7-16.67-16.12-16.63h0
						C112.62,297.44,105.29,305.41,106.03,314.71z"/>
				</g>
				
					<path style="fill:none;stroke:#FFFFFF;stroke-width:0.8738;stroke-linecap:round;stroke-linejoin:round;stroke-miterlimit:10;" d="
					M126.59,298.05c-1.47-0.43-3.03-0.67-4.64-0.66h0c-9.33,0.04-16.66,8.01-15.93,17.31l2.85,33.91"/>
				
					<path style="fill:none;stroke:#FFFFFF;stroke-width:0.8738;stroke-linecap:round;stroke-linejoin:round;stroke-miterlimit:10;" d="
					M135.23,304.3c-0.81-1.17-1.78-2.23-2.86-3.14c0,0-1.26-0.99-1.81-1.32"/>
				
					<path style="fill:none;stroke:#FFFFFF;stroke-width:0.8738;stroke-linecap:round;stroke-linejoin:round;stroke-miterlimit:10;" d="
					M136.67,348.62c0.41-11.35,1.05-24.63,1.41-34.6c0.09-2.56-0.42-5-1.41-7.19"/>
			</g>
			<g>
				<g>
					<g>
						
							<path style="fill:#FFFFFF;stroke:#263238;stroke-width:0.8738;stroke-linecap:round;stroke-linejoin:round;stroke-miterlimit:10;" d="
							M149.41,396.3l1.13,19.77l0.13,0.17c3.93,5.17,11.54,5.08,15.36-0.17l0,0l0.42-19.77H149.41z"/>
						<path style="fill:#BFBFBF;stroke:#263238;stroke-width:0.8738;stroke-miterlimit:10;" d="M170.19,435.39L170.19,435.39
							c-7.6,1.33-15.35,1.33-22.94,0l0,0c0,0-0.92-0.84-1.81-2.36c-1.58-2.74-1.67-6.1-0.38-8.98l4.58-8.16l18.11,0.21l4.08,7.44
							c1.98,3.62,1.61,8.12-1.07,11.26C170.42,435.18,170.19,435.39,170.19,435.39z"/>
						<path style="fill:#BFBFBF;stroke:#263238;stroke-width:0.8738;stroke-miterlimit:10;" d="M165.74,425.13
							c1.09,0.47,2.16,1.07,3.19,1.8"/>
						<path style="fill:#BFBFBF;stroke:#263238;stroke-width:0.8738;stroke-miterlimit:10;" d="M148.68,426.93
							c4.02-2.69,8.95-3.85,13.74-2.85"/>
					</g>
					<path style="fill:#263238;" d="M139.69,314.71l8,91.68h20.69c0,0,2.05-55.98,3.36-92.36c0.33-9.12-7-16.67-16.12-16.63l0,0
						C146.28,297.44,138.96,305.41,139.69,314.71z"/>
				</g>
				
					<path style="fill:none;stroke:#FFFFFF;stroke-width:0.8738;stroke-linecap:round;stroke-linejoin:round;stroke-miterlimit:10;" d="
					M162.22,298.78c-2.01-0.9-4.25-1.39-6.6-1.38l0,0c-9.33,0.04-16.66,8.01-15.93,17.31l2.96,33.91"/>
				
					<path style="fill:none;stroke:#FFFFFF;stroke-width:0.8738;stroke-linecap:round;stroke-linejoin:round;stroke-miterlimit:10;" d="
					M168.89,304.3c-0.81-1.17-1.78-2.23-2.87-3.14"/>
				
					<path style="fill:none;stroke:#FFFFFF;stroke-width:0.8738;stroke-linecap:round;stroke-linejoin:round;stroke-miterlimit:10;" d="
					M171.2,348.62c0.41-11.35,0.18-24.63,0.54-34.6c0.08-2.26-0.31-4.43-1.08-6.41"/>
			</g>
		</g>
	</g>
</g>
<g id="Graphics">
	<g>
		
			<path style="fill:#FFFFFF;stroke:#263238;stroke-width:1.0255;stroke-linecap:round;stroke-linejoin:round;stroke-miterlimit:10;" d="
			M416.25,158.67V116c0-4.3-3.48-7.78-7.78-7.78h-66.94c-4.3,0-7.78,3.48-7.78,7.78v42.67c0,4.3,3.48,7.78,7.78,7.78h23.3
			l-1.88,16.24H375v15.33l14.24-25.01h-11.68l1.24-6.56h29.68C412.77,166.45,416.25,162.97,416.25,158.67z"/>
		<g>
			
				<line style="fill:none;stroke:#263238;stroke-width:1.0255;stroke-linecap:round;stroke-linejoin:round;stroke-miterlimit:10;" x1="346.53" y1="122.82" x2="391.79" y2="122.82"/>
			
				<line style="fill:none;stroke:#263238;stroke-width:1.0255;stroke-linecap:round;stroke-linejoin:round;stroke-miterlimit:10;" x1="346.53" y1="134.91" x2="403.47" y2="134.91"/>
			
				<line style="fill:none;stroke:#263238;stroke-width:1.0255;stroke-linecap:round;stroke-linejoin:round;stroke-miterlimit:10;" x1="346.53" y1="147" x2="394.71" y2="147"/>
		</g>
	</g>
	<g>
		<g>
			<g>
				
					<polygon style="fill:#92E3A9;stroke:#263238;stroke-width:1.0255;stroke-linecap:round;stroke-linejoin:round;stroke-miterlimit:10;" points="
					467.38,341.38 507.82,354.86 497.79,364.9 516.51,383.62 476.07,370.14 486.1,360.1 				"/>
			</g>
			<g>
				
					<polygon style="fill:#92E3A9;stroke:#263238;stroke-width:1.0255;stroke-linecap:round;stroke-linejoin:round;stroke-miterlimit:10;" points="
					282.62,341.38 242.18,354.86 252.21,364.9 233.49,383.62 273.93,370.14 263.9,360.1 				"/>
			</g>
		</g>
		<g>
			
				<polygon style="fill:#92E3A9;stroke:#263238;stroke-width:1.0255;stroke-linecap:round;stroke-linejoin:round;stroke-miterlimit:10;" points="
				373.87,32.14 354.8,70.28 369,70.28 369,96.76 388.06,58.62 373.87,58.62 			"/>
		</g>
	</g>
</g>
</svg>
